<svg width="46" height="36" viewBox="0 0 46 36" fill="none" xmlns="http://www.w3.org/2000/svg">
<path d="M46 31.5046V3.93807C46 1.77213 43.7 0 40.8889 0H5.11111C2.3 0 0 1.77213 0 3.93807V31.5046C0 33.6705 2.3 35.4426 5.11111 35.4426H40.8889C43.7 35.4426 46 33.6705 46 31.5046ZM15.0778 21.62L20.4444 26.6017L28.3667 18.7452C28.8778 18.2333 29.9 18.2333 30.4111 18.7649L39.3811 27.98C39.5235 28.1263 39.6102 28.3002 39.6315 28.4823C39.6528 28.6644 39.6079 28.8474 39.5018 29.011C39.3956 29.1745 39.2325 29.3121 39.0307 29.4082C38.8288 29.5043 38.5962 29.5552 38.3589 29.5552H7.71778C6.64444 29.5552 6.05667 28.6101 6.72111 27.9603L13.0844 21.6594C13.57 21.1474 14.5411 21.1277 15.0778 21.62Z" fill="#A9A9A9"/>
</svg>
