<svg width="24" height="24" viewBox="0 0 24 24" fill="none" xmlns="http://www.w3.org/2000/svg">
<path fill-rule="evenodd" clip-rule="evenodd" d="M3.12005 7.26012V16.7401C3.12005 16.9301 3.28005 17.0601 3.41005 16.9701L10.77 12.2301C10.8037 12.202 10.8307 12.1668 10.8493 12.127C10.8678 12.0873 10.8774 12.044 10.8774 12.0001C10.8774 11.9563 10.8678 11.9129 10.8493 11.8732C10.8307 11.8335 10.8037 11.7983 10.77 11.7701L3.41005 7.00012C3.28005 6.94012 3.12005 7.07012 3.12005 7.26012Z" stroke="#F8991D" stroke-width="1.5" stroke-linecap="round" stroke-linejoin="round"/>
<path fill-rule="evenodd" clip-rule="evenodd" d="M13.12 7.26012V16.7401C13.12 16.9301 13.28 17.0601 13.41 16.9701L20.77 12.2301C20.8037 12.202 20.8307 12.1668 20.8493 12.127C20.8678 12.0873 20.8774 12.044 20.8774 12.0001C20.8774 11.9563 20.8678 11.9129 20.8493 11.8732C20.8307 11.8335 20.8037 11.7983 20.77 11.7701L13.41 7.00012C13.28 6.94012 13.12 7.07012 13.12 7.26012Z" stroke="#F8991D" stroke-width="1.5" stroke-linecap="round" stroke-linejoin="round"/>
</svg>
