<svg width="20" height="20" viewBox="0 0 20 20" fill="none" xmlns="http://www.w3.org/2000/svg">
<path d="M3.8915 15H3.33317C2.89114 15 2.46722 14.8244 2.15466 14.5119C1.8421 14.1993 1.6665 13.7754 1.6665 13.3334V5.40837C1.6665 4.96634 1.8421 4.54242 2.15466 4.22985C2.46722 3.91729 2.89114 3.7417 3.33317 3.7417H11.4832C11.9252 3.7417 12.3491 3.91729 12.6617 4.22985C12.9742 4.54242 13.1498 4.96634 13.1498 5.40837V11.1667" stroke="#7A7ACC" stroke-width="1.5" stroke-linecap="round" stroke-linejoin="round"/>
<path d="M13.4497 6.8252H15.4414C15.5905 6.82483 15.7378 6.8584 15.8721 6.92337C16.0064 6.98834 16.1241 7.08301 16.2164 7.2002L18.0997 9.7002C18.2922 9.95784 18.3973 10.2703 18.3997 10.5919V14.7585C18.3997 14.8027 18.3821 14.8451 18.3509 14.8764C18.3196 14.9076 18.2772 14.9252 18.233 14.9252H15.6914" stroke="#7A7ACC" stroke-width="1.5" stroke-linecap="round" stroke-linejoin="round"/>
<path d="M13.7578 16.7167C14.7887 16.7167 15.6244 15.881 15.6244 14.8501C15.6244 13.8191 14.7887 12.9834 13.7578 12.9834C12.7268 12.9834 11.8911 13.8191 11.8911 14.8501C11.8911 15.881 12.7268 16.7167 13.7578 16.7167Z" stroke="#7A7ACC" stroke-width="1.5" stroke-linecap="round" stroke-linejoin="round"/>
<path d="M5.85006 16.7167C6.881 16.7167 7.71673 15.881 7.71673 14.8501C7.71673 13.8191 6.881 12.9834 5.85006 12.9834C4.81913 12.9834 3.9834 13.8191 3.9834 14.8501C3.9834 15.881 4.81913 16.7167 5.85006 16.7167Z" stroke="#7A7ACC" stroke-width="1.5" stroke-linecap="round" stroke-linejoin="round"/>
<path d="M11.5998 14.9585H7.80811" stroke="#7A7ACC" stroke-width="1.5" stroke-linecap="round" stroke-linejoin="round"/>
</svg>
