<svg width="24" height="24" viewBox="0 0 24 24" fill="none" xmlns="http://www.w3.org/2000/svg">
<path fill-rule="evenodd" clip-rule="evenodd" d="M17.9862 5.42428C14.008 4.97967 9.99267 4.97967 6.0145 5.42428C5.74533 5.45437 5.6157 5.77002 5.78605 5.98059L9.30307 10.3281C10.563 11.8856 11.2503 13.8281 11.2503 15.8313V18.7206L12.7503 19.8206V15.8313C12.7503 13.8281 13.4377 11.8856 14.6976 10.3281L18.2146 5.98059C18.385 5.77002 18.2553 5.45437 17.9862 5.42428ZM5.84789 3.93357C9.93678 3.47657 14.0639 3.47657 18.1528 3.93357C19.5997 4.09528 20.2965 5.79207 19.3808 6.924L15.8638 11.2715C14.8199 12.562 14.2503 14.1715 14.2503 15.8313V21.3006C14.2503 21.5832 14.0914 21.8419 13.8393 21.9696C13.5872 22.0974 13.2847 22.0725 13.0568 21.9054L10.0568 19.7054C9.86414 19.5641 9.75032 19.3395 9.75032 19.1006V15.8313C9.75032 14.1715 9.1808 12.562 8.13689 11.2715L4.61986 6.924C3.70417 5.79207 4.40096 4.09528 5.84789 3.93357Z" fill="#FDFDFD"/>
</svg>
