<svg width="44" height="44" viewBox="0 0 44 44" fill="none" xmlns="http://www.w3.org/2000/svg">
<path fill-rule="evenodd" clip-rule="evenodd" d="M12.832 5.95825C13.5914 5.95825 14.207 6.57386 14.207 7.33325V10.3906C19.3912 9.92889 24.6062 9.92889 29.7904 10.3906V7.33325C29.7904 6.57386 30.406 5.95825 31.1654 5.95825C31.9247 5.95825 32.5404 6.57386 32.5404 7.33325V10.6634C35.2776 11.0504 37.4401 13.2154 37.8061 15.9771L37.9648 17.1742C38.6322 22.2091 38.5746 27.3137 37.7936 32.3323C37.4068 34.8184 35.3871 36.7279 32.8832 36.9748L30.696 37.1905C24.9118 37.761 19.0855 37.761 13.3012 37.1905L11.114 36.9748C8.61018 36.7279 6.59048 34.8184 6.20363 32.3323C5.4227 27.3137 5.36506 22.2091 6.03246 17.1742L6.19114 15.9771C6.55721 13.2154 8.71972 11.0504 11.457 10.6634V7.33325C11.457 6.57386 12.0726 5.95825 12.832 5.95825ZM13.6482 13.2051C19.2017 12.6574 24.7956 12.6574 30.3491 13.2051L32.0091 13.3688C33.5981 13.5255 34.8702 14.7556 35.08 16.3385L35.2387 17.5356C35.2941 17.9538 35.3442 18.3725 35.3891 18.7916H8.60814C8.65302 18.3725 8.70318 17.9538 8.75861 17.5356L8.91729 16.3385C9.12711 14.7556 10.3991 13.5255 11.9882 13.3688L13.6482 13.2051ZM8.38954 21.5416C8.20955 25.0031 8.38688 28.4775 8.92092 31.9095C9.11496 33.1565 10.128 34.1143 11.3839 34.2381L13.5711 34.4538C19.1759 35.0065 24.8214 35.0065 30.4262 34.4538L32.6133 34.2381C33.8692 34.1143 34.8823 33.1565 35.0763 31.9095C35.6104 28.4775 35.7877 25.0031 35.6077 21.5416H8.38954Z" fill="#15158C"/>
</svg>
