<svg width="18" height="18" viewBox="0 0 18 18" fill="none" xmlns="http://www.w3.org/2000/svg">
<path fill-rule="evenodd" clip-rule="evenodd" d="M8.39939 1.9404C8.77314 1.73276 9.2276 1.73276 9.60135 1.9404L15.0014 4.9404C15.3942 5.15866 15.6379 5.57275 15.6379 6.02217V11.9778C15.6379 12.4272 15.3942 12.8413 15.0014 13.0596L9.60135 16.0596C9.2276 16.2672 8.77314 16.2672 8.39939 16.0596L2.99939 13.0596C2.60652 12.8413 2.36287 12.4272 2.36287 11.9778V6.02217C2.36287 5.57275 2.60652 5.15866 2.99939 4.9404L8.39939 1.9404ZM9.05501 2.92383C9.02103 2.90495 8.97971 2.90495 8.94574 2.92383L3.54573 5.92383C3.51002 5.94367 3.48787 5.98131 3.48787 6.02217V11.9778C3.48787 12.0187 3.51002 12.0563 3.54573 12.0762L8.94574 15.0762C8.97971 15.095 9.02103 15.095 9.05501 15.0762L14.455 12.0762C14.4907 12.0563 14.5129 12.0187 14.5129 11.9778V6.02217C14.5129 5.98131 14.4907 5.94367 14.455 5.92383L9.05501 2.92383Z" fill="#15158C"/>
<path fill-rule="evenodd" clip-rule="evenodd" d="M5.43787 9C5.43787 7.03248 7.03286 5.4375 9.00037 5.4375C10.9679 5.4375 12.5629 7.03248 12.5629 9C12.5629 10.9675 10.9679 12.5625 9.00037 12.5625C7.03286 12.5625 5.43787 10.9675 5.43787 9ZM9.00037 6.5625C7.65418 6.5625 6.56287 7.6538 6.56287 9C6.56287 10.3462 7.65418 11.4375 9.00037 11.4375C10.3466 11.4375 11.4379 10.3462 11.4379 9C11.4379 7.6538 10.3466 6.5625 9.00037 6.5625Z" fill="#15158C"/>
</svg>
