<svg width="73" height="57" viewBox="0 0 73 57" fill="none" xmlns="http://www.w3.org/2000/svg">
<path d="M73 49.9964V6.24954C73 2.8123 69.35 0 64.8889 0H8.11111C3.65 0 0 2.8123 0 6.24954V49.9964C0 53.4336 3.65 56.2459 8.11111 56.2459H64.8889C69.35 56.2459 73 53.4336 73 49.9964ZM23.9278 34.31L32.4444 42.2157L45.0167 29.7478C45.8278 28.9354 47.45 28.9354 48.2611 29.7791L62.4961 44.403C62.7221 44.6351 62.8597 44.9112 62.8935 45.2001C62.9273 45.4891 62.856 45.7796 62.6876 46.0392C62.5192 46.2987 62.2603 46.517 61.94 46.6695C61.6196 46.822 61.2505 46.9028 60.8739 46.9028H12.2478C10.5444 46.9028 9.61167 45.4029 10.6661 44.3718L20.7644 34.3725C21.535 33.5601 23.0761 33.5288 23.9278 34.31Z" fill="#D1D1D1"/>
</svg>
