<svg width="44" height="44" viewBox="0 0 44 44" fill="none" xmlns="http://www.w3.org/2000/svg">
<path fill-rule="evenodd" clip-rule="evenodd" d="M20.1668 5.84839C20.2934 5.44681 20.5448 5.09606 20.8844 4.84708C21.2239 4.5981 21.634 4.46387 22.0551 4.46387C22.4762 4.46387 22.8863 4.5981 23.2259 4.84708C23.5655 5.09606 23.8168 5.44681 23.9435 5.84839L27.3535 16.3351H38.3534C38.7896 16.3186 39.2191 16.4453 39.5764 16.6959C39.9337 16.9465 40.1992 17.3072 40.3322 17.7229C40.4652 18.1386 40.4585 18.5864 40.3131 18.9979C40.1676 19.4094 39.8915 19.762 39.5268 20.0017L30.5984 26.4734L34.0084 36.9784C34.1433 37.3786 34.1467 37.8113 34.0181 38.2136C33.8896 38.6158 33.6358 38.9664 33.2939 39.2141C32.9519 39.4619 32.5397 39.5938 32.1175 39.5907C31.6952 39.5876 31.285 39.4495 30.9468 39.1967L22.0001 32.6517L13.0718 39.1417C12.7336 39.3945 12.3234 39.5326 11.9011 39.5357C11.4788 39.5388 11.0666 39.4069 10.7247 39.1591C10.3828 38.9114 10.129 38.5608 10.0004 38.1586C9.87186 37.7563 9.87526 37.3236 10.0101 36.9234L13.4201 26.4184L4.49179 19.9467C4.12711 19.707 3.85095 19.3544 3.70551 18.9429C3.56007 18.5314 3.55334 18.0836 3.68636 17.6679C3.81938 17.2522 4.08482 16.8915 4.44214 16.6409C4.79945 16.3903 5.22899 16.2636 5.66512 16.2801H16.6651L20.1668 5.84839Z" stroke="#F8BA68" stroke-width="3" stroke-linecap="round" stroke-linejoin="round"/>
</svg>
