<svg width="16" height="16" viewBox="0 0 16 16" fill="none" xmlns="http://www.w3.org/2000/svg">
<path d="M12.6666 6.00016C12.6666 6.96683 12.3799 7.85351 11.8866 8.59351C11.1666 9.66017 10.0266 10.4135 8.69992 10.6068C8.47325 10.6468 8.23992 10.6668 7.99992 10.6668C7.75992 10.6668 7.52659 10.6468 7.29992 10.6068C5.97325 10.4135 4.83325 9.66017 4.11325 8.59351C3.61992 7.85351 3.33325 6.96683 3.33325 6.00016C3.33325 3.42016 5.41992 1.3335 7.99992 1.3335C10.5799 1.3335 12.6666 3.42016 12.6666 6.00016Z" stroke="#F8991D" stroke-linecap="round" stroke-linejoin="round"/>
<path d="M14.1666 12.3134L13.0666 12.5734C12.82 12.6334 12.6266 12.8201 12.5733 13.0668L12.34 14.0468C12.2133 14.5801 11.5333 14.7401 11.18 14.3201L7.99997 10.6668L4.81997 14.3268C4.46664 14.7468 3.78664 14.5868 3.65997 14.0534L3.42664 13.0734C3.36664 12.8268 3.1733 12.6334 2.9333 12.5801L1.8333 12.3201C1.32664 12.2001 1.14664 11.5668 1.5133 11.2001L4.1133 8.6001C4.8333 9.66676 5.9733 10.4201 7.29997 10.6134C7.52664 10.6534 7.75997 10.6734 7.99997 10.6734C8.23997 10.6734 8.47331 10.6534 8.69997 10.6134C10.0266 10.4201 11.1666 9.66676 11.8866 8.6001L14.4866 11.2001C14.8533 11.5601 14.6733 12.1934 14.1666 12.3134Z" fill="#F8991D" stroke="#F8991D" stroke-linecap="round" stroke-linejoin="round"/>
<path d="M8.38657 3.9865L8.7799 4.77317C8.83323 4.87983 8.97323 4.9865 9.0999 5.0065L9.81323 5.1265C10.2666 5.19983 10.3732 5.53317 10.0466 5.85984L9.49323 6.41316C9.3999 6.50649 9.34657 6.6865 9.3799 6.81984L9.5399 7.5065C9.66657 8.0465 9.3799 8.25982 8.8999 7.97316L8.23323 7.57983C8.11323 7.50649 7.91323 7.50649 7.79323 7.57983L7.12657 7.97316C6.64657 8.25316 6.3599 8.0465 6.48657 7.5065L6.64657 6.81984C6.67323 6.69317 6.62657 6.50649 6.53323 6.41316L5.9799 5.85984C5.65323 5.53317 5.7599 5.2065 6.21323 5.1265L6.92657 5.0065C7.04657 4.9865 7.18657 4.87983 7.2399 4.77317L7.63323 3.9865C7.82657 3.55984 8.17323 3.55984 8.38657 3.9865Z" fill="#F8991D" stroke="#F8991D" stroke-linecap="round" stroke-linejoin="round"/>
</svg>
