<svg width="24" height="24" viewBox="0 0 24 24" fill="none" xmlns="http://www.w3.org/2000/svg">
<path d="M4.67 18.0002H4C3.46957 18.0002 2.96086 17.7895 2.58579 17.4144C2.21071 17.0394 2 16.5307 2 16.0002V6.49023C2 5.9598 2.21071 5.45109 2.58579 5.07602C2.96086 4.70095 3.46957 4.49023 4 4.49023H13.78C14.3104 4.49023 14.8191 4.70095 15.1942 5.07602C15.5693 5.45109 15.78 5.9598 15.78 6.49023V13.4002" stroke="#29298A" stroke-width="2" stroke-linecap="round" stroke-linejoin="round"/>
<path d="M16.1399 8.19043H18.5299C18.7089 8.18999 18.8856 8.23028 19.0468 8.30824C19.2079 8.38621 19.3492 8.4998 19.4599 8.64043L21.7199 11.6404C21.9509 11.9496 22.077 12.3245 22.0799 12.7104V17.7104C22.0799 17.7635 22.0588 17.8143 22.0213 17.8519C21.9838 17.8894 21.9329 17.9104 21.8799 17.9104H18.8299" stroke="#29298A" stroke-width="2" stroke-linecap="round" stroke-linejoin="round"/>
<path d="M16.5098 20.0601C17.7469 20.0601 18.7498 19.0572 18.7498 17.8201C18.7498 16.583 17.7469 15.5801 16.5098 15.5801C15.2727 15.5801 14.2698 16.583 14.2698 17.8201C14.2698 19.0572 15.2727 20.0601 16.5098 20.0601Z" stroke="#29298A" stroke-width="2" stroke-linecap="round" stroke-linejoin="round"/>
<path d="M7.02003 20.0601C8.25715 20.0601 9.26003 19.0572 9.26003 17.8201C9.26003 16.583 8.25715 15.5801 7.02003 15.5801C5.78291 15.5801 4.78003 16.583 4.78003 17.8201C4.78003 19.0572 5.78291 20.0601 7.02003 20.0601Z" stroke="#29298A" stroke-width="2" stroke-linecap="round" stroke-linejoin="round"/>
<path d="M13.9201 17.9502H9.37012" stroke="#29298A" stroke-width="2" stroke-linecap="round" stroke-linejoin="round"/>
</svg>
