<svg width="20" height="20" viewBox="0 0 20 20" fill="none" xmlns="http://www.w3.org/2000/svg">
<path d="M16.8914 10.1997H3.09977C2.1793 10.1997 1.43311 10.9459 1.43311 11.8664V16.6664C1.43311 17.5868 2.1793 18.333 3.09977 18.333H16.8914C17.8119 18.333 18.5581 17.5868 18.5581 16.6664V11.8664C18.5581 10.9459 17.8119 10.1997 16.8914 10.1997Z" stroke="#7A7ACC" stroke-width="1.5" stroke-linecap="round" stroke-linejoin="round"/>
<path d="M9.99967 4.99984C10.9201 4.99984 11.6663 4.25365 11.6663 3.33317C11.6663 2.4127 10.9201 1.6665 9.99967 1.6665C9.0792 1.6665 8.33301 2.4127 8.33301 3.33317C8.33301 4.25365 9.0792 4.99984 9.99967 4.99984Z" stroke="#7A7ACC" stroke-width="1.5" stroke-linecap="round" stroke-linejoin="round"/>
<path d="M10.9746 5L14.8579 10.2" stroke="#7A7ACC" stroke-width="1.5" stroke-linecap="round" stroke-linejoin="round"/>
<path d="M9.02493 5L5.1416 10.2" stroke="#7A7ACC" stroke-width="1.5" stroke-linecap="round" stroke-linejoin="round"/>
</svg>
