<svg width="18" height="18" viewBox="0 0 18 18" fill="none" xmlns="http://www.w3.org/2000/svg">
<path fill-rule="evenodd" clip-rule="evenodd" d="M2.43756 7.52235C2.43756 5.49698 4.21442 3.9375 6.30006 3.9375C7.37516 3.9375 8.32119 4.4416 9.00006 5.09387C9.67893 4.4416 10.625 3.9375 11.7001 3.9375C13.7857 3.9375 15.5626 5.49698 15.5626 7.52235C15.5626 8.90975 14.9709 10.1298 14.1512 11.1612C13.3329 12.1907 12.2625 13.0645 11.2377 13.7745C10.8462 14.0457 10.4502 14.2958 10.0878 14.4804C9.74744 14.6537 9.35612 14.8125 9.00006 14.8125C8.644 14.8125 8.25268 14.6537 7.91236 14.4804C7.54992 14.2958 7.15391 14.0457 6.76246 13.7745C5.7376 13.0645 4.66722 12.1907 3.84893 11.1612C3.02922 10.1298 2.43756 8.90975 2.43756 7.52235ZM6.30006 5.0625C4.74062 5.0625 3.56256 6.20932 3.56256 7.52235C3.56256 8.57497 4.0094 9.555 4.72963 10.4612C5.45127 11.3691 6.42225 12.1702 7.40312 12.8497C7.77427 13.1068 8.12387 13.3256 8.4229 13.4779C8.74405 13.6415 8.93006 13.6875 9.00006 13.6875C9.07006 13.6875 9.25608 13.6415 9.57722 13.4779C9.87626 13.3256 10.2258 13.1068 10.597 12.8497C11.5779 12.1702 12.5488 11.3691 13.2705 10.4612C13.9907 9.555 14.4376 8.57497 14.4376 7.52235C14.4376 6.20932 13.2595 5.0625 11.7001 5.0625C10.8044 5.0625 9.96816 5.59757 9.44598 6.27669C9.33951 6.41517 9.17474 6.49632 9.00006 6.49632C8.82538 6.49632 8.66061 6.41517 8.55414 6.27669C8.03196 5.59757 7.19567 5.0625 6.30006 5.0625Z" fill="#15158C"/>
</svg>
