<svg width="104" height="27" viewBox="0 0 104 27" fill="none" xmlns="http://www.w3.org/2000/svg">
<path d="M31.3745 20.1882L37.7298 2.80661H41.3005L47.6558 20.1882H44.2872L42.8949 16.1685H36.1129L34.6981 20.1882H31.3745ZM36.9887 13.6757H42.0415L39.5039 6.44463L36.9887 13.6757ZM53.5619 16.5053C52.9556 16.5053 52.4166 16.4379 51.9001 16.3032L50.9794 17.2239C51.2713 17.3811 51.6306 17.4934 52.1247 17.6057C52.5963 17.6955 53.3823 17.8078 54.4602 17.8976C56.0995 18.0548 57.2897 18.4366 58.0308 19.0654C58.7719 19.6942 59.1537 20.57 59.1537 21.6704C59.1537 22.389 58.9516 23.0852 58.5473 23.7364C58.1431 24.3877 57.5368 24.9266 56.7059 25.3309C55.875 25.7351 54.8195 25.9372 53.517 25.9372C51.7654 25.9372 50.3506 25.6003 49.2726 24.9491C48.1947 24.2978 47.6558 23.3097 47.6558 22.0072C47.6558 20.9068 48.1947 19.9412 49.2726 19.1328C48.9358 18.9756 48.6663 18.8184 48.4193 18.6612C48.1723 18.504 47.9701 18.3243 47.7905 18.1447V17.5832L49.9463 15.2926C48.9807 14.4393 48.5091 13.3613 48.5091 12.0364C48.5091 11.2055 48.7112 10.4644 49.1154 9.76824C49.5197 9.09454 50.1035 8.55558 50.8446 8.15135C51.5857 7.74713 52.484 7.54501 53.5619 7.54501C54.2581 7.54501 54.9093 7.63485 55.4932 7.83696H60.1642V9.76824L58.0533 9.92544C58.3901 10.5542 58.5473 11.2504 58.5473 12.0139C58.5473 12.8448 58.3452 13.5859 57.941 14.2821C57.5368 14.9558 56.9753 15.4947 56.2118 15.899C55.4707 16.3032 54.5949 16.5053 53.5619 16.5053ZM50.5751 21.6928C50.5751 22.2992 50.8671 22.7708 51.4285 23.0627C51.9899 23.3771 52.7085 23.5118 53.517 23.5118C54.303 23.5118 54.9542 23.3546 55.4483 23.0178C55.9423 22.6809 56.1894 22.2543 56.1894 21.7153C56.1894 21.2662 56.0322 20.8844 55.6953 20.5925C55.3809 20.3005 54.7297 20.1209 53.764 20.0535C53.0903 20.0086 52.4615 19.9188 51.8776 19.8289C51.406 20.0984 51.0467 20.3903 50.8446 20.7047C50.6874 21.0416 50.5751 21.356 50.5751 21.6928ZM53.5619 14.08C54.2132 14.08 54.7521 13.9003 55.1563 13.5635C55.5606 13.2266 55.7851 12.7101 55.7851 12.0813C55.7851 11.4301 55.583 10.936 55.1563 10.5992C54.7297 10.2623 54.1907 10.0826 53.5619 10.0826C52.8882 10.0826 52.3268 10.2623 51.9226 10.5992C51.5183 10.936 51.2938 11.4525 51.2938 12.0813C51.2938 12.7326 51.4959 13.2266 51.9226 13.5635C52.3268 13.9003 52.8882 14.08 53.5619 14.08ZM66.4072 20.4802C65.217 20.4802 64.1391 20.2107 63.1959 19.6493C62.2527 19.1103 61.4892 18.3468 60.9278 17.3811C60.3663 16.4155 60.0969 15.2926 60.0969 14.0126C60.0969 12.7326 60.3888 11.6097 60.9502 10.6441C61.5116 9.67842 62.2752 8.91489 63.2184 8.37592C64.1615 7.83696 65.2395 7.54501 66.4297 7.54501C67.5974 7.54501 68.6754 7.8145 69.6186 8.37592C70.5618 8.91489 71.3253 9.67842 71.8867 10.6441C72.4481 11.6097 72.7176 12.7326 72.7176 14.0126C72.7176 15.2926 72.4481 16.4155 71.8867 17.3811C71.3253 18.3468 70.5842 19.1103 69.6186 19.6493C68.6529 20.2107 67.575 20.4802 66.4072 20.4802ZM66.4072 17.718C67.2381 17.718 67.9568 17.4036 68.5631 16.7972C69.1694 16.1685 69.4838 15.2477 69.4838 14.035C69.4838 12.7999 69.1694 11.8792 68.5631 11.2729C67.9568 10.6441 67.2381 10.3521 66.4297 10.3521C65.5763 10.3521 64.8577 10.6665 64.2514 11.2729C63.645 11.9016 63.3531 12.8224 63.3531 14.035C63.3531 15.2702 63.645 16.1909 64.2514 16.7972C64.8577 17.4036 65.5763 17.718 66.4072 17.718ZM81.7453 20.4802C80.1059 20.4802 78.6687 20.0984 77.456 19.3573C76.2209 18.6163 75.2777 17.5832 74.604 16.2358C73.9303 14.9109 73.5934 13.3389 73.5934 11.5873C73.5934 9.7907 73.9527 8.21872 74.6489 6.84885C75.3451 5.47898 76.3556 4.42351 77.6581 3.63752C78.9606 2.87399 80.5101 2.49222 82.2842 2.49222C84.3278 2.49222 86.0121 2.98627 87.3595 3.95192C88.7069 4.94002 89.5603 6.28743 89.9645 7.99415H86.4163C86.1468 7.1857 85.6752 6.55691 84.9791 6.08532C84.2829 5.63618 83.3846 5.41161 82.3067 5.41161C80.5775 5.41161 79.2301 5.97303 78.2869 7.07342C77.3437 8.17381 76.8721 9.67842 76.8721 11.6097C76.8721 13.541 77.3437 15.0232 78.2869 16.0786C79.2301 17.1341 80.4877 17.6506 82.1046 17.6506C83.6766 17.6506 84.8668 17.2239 85.6752 16.3706C86.4837 15.5172 86.9553 14.3944 87.1349 13.002H82.7334V10.6216H90.3463V20.1882H87.4044L87.1574 17.8976C86.596 18.7285 85.8998 19.3573 85.0464 19.8065C84.1257 20.2556 83.0478 20.4802 81.7453 20.4802ZM97.6896 20.4802C96.4994 20.4802 95.4215 20.2107 94.4783 19.6493C93.5351 19.1103 92.7716 18.3468 92.2102 17.3811C91.6487 16.4155 91.3793 15.2926 91.3793 14.0126C91.3793 12.7326 91.6712 11.6097 92.2326 10.6441C92.7941 9.67842 93.5576 8.91489 94.5008 8.37592C95.444 7.83696 96.5219 7.54501 97.7121 7.54501C98.8799 7.54501 99.9578 7.8145 100.901 8.37592C101.844 8.91489 102.608 9.67842 103.169 10.6441C103.731 11.6097 104 12.7326 104 14.0126C104 15.2926 103.731 16.4155 103.169 17.3811C102.608 18.3468 101.867 19.1103 100.901 19.6493C99.9353 20.2107 98.8574 20.4802 97.6896 20.4802ZM97.6896 17.718C98.5206 17.718 99.2392 17.4036 99.8455 16.7972C100.452 16.1685 100.766 15.2477 100.766 14.035C100.766 12.7999 100.452 11.8792 99.8455 11.2729C99.2392 10.6441 98.5205 10.3521 97.7121 10.3521C96.8587 10.3521 96.1401 10.6665 95.5338 11.2729C94.9275 11.9016 94.6355 12.8224 94.6355 14.035C94.6355 15.2702 94.9275 16.1909 95.5338 16.7972C96.1401 17.4036 96.8587 17.718 97.6896 17.718Z" fill="#15158C"/>
<path d="M71.4828 25.6018V21.829H72.8302C73.2793 21.829 73.5937 21.9189 73.8183 22.0985C74.0204 22.2782 74.1327 22.5477 74.1327 22.8621C74.1327 23.0417 74.0878 23.2214 73.9755 23.3786C73.8632 23.5358 73.706 23.6256 73.5039 23.6705C73.7284 23.7154 73.9081 23.8053 74.0428 23.9849C74.1776 24.1421 74.245 24.3218 74.245 24.5463C74.245 24.8607 74.1327 25.1302 73.8856 25.3099C73.6386 25.512 73.3018 25.6018 72.8526 25.6018H71.4828ZM71.9319 23.4909H72.8302C73.3691 23.4909 73.6386 23.2887 73.6386 22.8845C73.6386 22.4803 73.3691 22.2782 72.8302 22.2782H71.9319V23.4909ZM71.9319 25.1751H72.92C73.1895 25.1751 73.3916 25.1302 73.5263 25.0179C73.6611 24.9056 73.7284 24.7484 73.7284 24.5463C73.7284 24.3442 73.6611 24.187 73.5263 24.0747C73.3916 23.9625 73.1895 23.9175 72.92 23.9175H71.9319V25.1751ZM77.2542 22.7498L75.9068 26.0959C75.8394 26.2755 75.7496 26.4327 75.6597 26.545C75.5699 26.6573 75.4801 26.7246 75.3678 26.7696C75.2555 26.8145 75.1432 26.8369 75.0085 26.8369C74.8737 26.8369 74.7615 26.8145 74.6492 26.792C74.5369 26.7471 74.4471 26.7022 74.3572 26.6573L74.492 26.2531C74.5594 26.3204 74.6492 26.3653 74.739 26.4102C74.8288 26.4327 74.9187 26.4552 74.986 26.4552C75.0759 26.4552 75.1881 26.4327 75.2555 26.3653C75.3453 26.298 75.4127 26.1857 75.5025 25.9836L75.6597 25.6018L75.3678 24.9281L74.4695 22.7498H74.986L75.7047 24.6137L75.8843 25.1302L76.0864 24.5688L76.7601 22.7722H77.2542V22.7498ZM82.0599 25.6018H81.5659L81.1617 24.5463H79.4549L79.0507 25.6018H78.5791L80.0388 21.829H80.5778L82.0599 25.6018ZM79.6346 24.1197H81.0045L80.3083 22.2557L79.6346 24.1197ZM84.0586 25.2425C84.3281 25.2425 84.5302 25.3099 84.6874 25.4221C84.8446 25.5344 84.912 25.7141 84.912 25.9162C84.912 26.0959 84.8446 26.2755 84.7323 26.4102C84.5976 26.545 84.4404 26.6573 84.2383 26.7246C84.0361 26.792 83.7891 26.8369 83.5421 26.8369C83.093 26.8369 82.7561 26.7696 82.5315 26.6124C82.307 26.4552 82.1947 26.2755 82.1947 26.0734C82.1947 25.9162 82.2396 25.7815 82.3519 25.6692C82.4417 25.5569 82.6214 25.4895 82.8684 25.4671L82.8235 25.5569C82.6887 25.512 82.5765 25.4671 82.4866 25.3772C82.3968 25.2874 82.3519 25.1751 82.3519 25.0179C82.3519 24.8607 82.4193 24.726 82.5315 24.6137C82.6438 24.5014 82.8235 24.434 83.048 24.4116L83.34 24.5688H83.2726C83.093 24.5912 82.9582 24.6362 82.8684 24.7035C82.801 24.7709 82.7561 24.8607 82.7561 24.9506C82.7561 25.0628 82.801 25.1302 82.8684 25.1976C82.9358 25.2425 83.048 25.2649 83.2052 25.2649H84.0586V25.2425ZM83.4972 22.6824C83.7218 22.6824 83.9239 22.7273 84.1035 22.7947C84.2832 22.8621 84.4179 22.9968 84.5077 23.1315C84.5976 23.2663 84.6649 23.4459 84.6649 23.6256C84.6649 23.8053 84.62 23.9849 84.5077 24.1197C84.4179 24.2769 84.2607 24.3891 84.1035 24.4565C83.9239 24.5463 83.7218 24.5688 83.4972 24.5688C83.1154 24.5688 82.8235 24.479 82.6214 24.2993C82.4193 24.1196 82.3294 23.8951 82.3294 23.6031C82.3294 23.4235 82.3743 23.2438 82.4866 23.1091C82.5765 22.9744 82.7336 22.8621 82.8908 22.7722C83.048 22.6824 83.2502 22.6824 83.4972 22.6824ZM83.5196 26.4552C83.7442 26.4552 83.9239 26.4327 84.0586 26.3878C84.1933 26.3429 84.3056 26.2755 84.373 26.2081C84.4404 26.1408 84.4853 26.0509 84.4853 25.9836C84.4853 25.8713 84.4404 25.8039 84.373 25.7365C84.2832 25.6692 84.1484 25.6467 83.9239 25.6467H83.048C82.9358 25.6467 82.8235 25.6692 82.7337 25.7365C82.6438 25.8039 82.5989 25.8937 82.5989 26.006C82.5989 26.1408 82.6887 26.2531 82.8459 26.3429C83.0256 26.4103 83.2502 26.4552 83.5196 26.4552ZM83.4972 23.0642C83.2951 23.0642 83.1379 23.1091 83.0031 23.2214C82.8684 23.3337 82.801 23.4684 82.801 23.6481C82.801 23.8277 82.8684 23.9625 83.0031 24.0747C83.1379 24.187 83.2951 24.2319 83.4972 24.2319C83.6993 24.2319 83.8565 24.187 83.9912 24.0747C84.126 23.9625 84.1934 23.8277 84.1934 23.6481C84.1934 23.4684 84.126 23.3337 83.9912 23.2214C83.8565 23.1091 83.6768 23.0642 83.4972 23.0642ZM84.9344 22.2108L85.0467 22.615C85.0467 22.615 85.0467 22.615 85.0242 22.615H85.0018C84.8221 22.615 84.6649 22.66 84.5751 22.7273C84.4628 22.7947 84.4179 22.9294 84.4179 23.0866L84.1484 22.9519C84.1484 22.7947 84.1933 22.6824 84.2607 22.5701C84.3281 22.4578 84.4179 22.368 84.5302 22.3231C84.6425 22.2557 84.7772 22.2333 84.912 22.2333C84.8895 22.2108 84.912 22.2108 84.9344 22.2108C84.912 22.2108 84.912 22.2108 84.9344 22.2108ZM86.5064 22.6824C86.7759 22.6824 87.0229 22.7498 87.225 22.8621C87.4271 22.9744 87.6068 23.154 87.7191 23.3786C87.8314 23.6031 87.8987 23.8726 87.8987 24.187C87.8987 24.5014 87.8314 24.7709 87.7191 24.9955C87.6068 25.22 87.4271 25.3997 87.225 25.512C87.0229 25.6243 86.7759 25.6916 86.5064 25.6916C86.2369 25.6916 86.0124 25.6243 85.7878 25.512C85.5857 25.3997 85.406 25.22 85.2937 24.9955C85.1814 24.7709 85.1141 24.5014 85.1141 24.187C85.1141 23.8726 85.1814 23.6031 85.2937 23.3786C85.406 23.154 85.5857 22.9744 85.7878 22.8621C86.0124 22.7498 86.2369 22.6824 86.5064 22.6824ZM86.5064 23.0866C86.3043 23.0866 86.1471 23.1315 86.0124 23.2214C85.8776 23.3112 85.7653 23.4235 85.698 23.6031C85.6306 23.7603 85.5857 23.9625 85.5857 24.187C85.5857 24.4116 85.6306 24.6137 85.698 24.7709C85.7653 24.9281 85.8776 25.0628 86.0124 25.1527C86.1471 25.2425 86.3043 25.2874 86.5064 25.2874C86.7085 25.2874 86.8657 25.2425 87.0005 25.1527C87.1352 25.0628 87.2475 24.9281 87.3148 24.7709C87.3822 24.6137 87.4271 24.4116 87.4271 24.187C87.4271 23.9625 87.3822 23.7603 87.3148 23.6031C87.2475 23.4459 87.1352 23.3112 87.0005 23.2214C86.8657 23.1315 86.7085 23.0866 86.5064 23.0866ZM89.8974 21.829C90.1444 21.829 90.369 21.874 90.5711 21.9638C90.7507 22.0536 90.9079 22.1884 91.0202 22.368C91.1325 22.5477 91.1774 22.7498 91.1774 22.9744C91.1774 23.2214 91.1325 23.4235 91.0202 23.5807C90.9079 23.7603 90.7732 23.8951 90.5711 23.9849C90.3914 24.0747 90.1669 24.1197 89.8974 24.1197H89.0216V25.6018H88.5724V21.829H89.8974ZM89.83 23.693C90.122 23.693 90.3465 23.6256 90.4813 23.5133C90.616 23.3786 90.6834 23.2214 90.6834 22.9744C90.6834 22.7273 90.616 22.5701 90.4813 22.4354C90.3465 22.3231 90.122 22.2557 89.83 22.2557H89.0216V23.693H89.83ZM93.4007 23.7603C93.4007 23.5358 93.3333 23.3786 93.221 23.2663C93.1087 23.154 92.9515 23.0866 92.727 23.0866C92.5249 23.0866 92.3677 23.1315 92.2329 23.2214C92.0982 23.3112 91.9859 23.4459 91.941 23.6256L91.5592 23.401C91.6266 23.1765 91.7838 23.0193 91.9859 22.8845C92.188 22.7498 92.4575 22.6824 92.7494 22.6824C92.9515 22.6824 93.1312 22.7273 93.3108 22.7947C93.468 22.8621 93.6028 22.9744 93.7151 23.1091C93.8049 23.2438 93.8498 23.4459 93.8498 23.6705V25.0628C93.8498 25.1976 93.9172 25.2649 94.0744 25.2649C94.1417 25.2649 94.2091 25.265 94.2765 25.2425L94.254 25.6018C94.1867 25.6467 94.0744 25.6692 93.9621 25.6692C93.8498 25.6692 93.76 25.6467 93.6701 25.6018C93.5803 25.5569 93.5129 25.4895 93.468 25.3997C93.4231 25.3099 93.4007 25.1976 93.4007 25.0853V25.0179L93.513 25.0404C93.468 25.1976 93.3782 25.3099 93.2884 25.3997C93.1986 25.4895 93.0638 25.5569 92.9066 25.6018C92.7719 25.6467 92.6371 25.6692 92.5024 25.6692C92.3452 25.6692 92.188 25.6467 92.0308 25.5793C91.8961 25.512 91.7613 25.4446 91.6939 25.3099C91.6041 25.1976 91.5592 25.0404 91.5592 24.8832C91.5592 24.6586 91.6266 24.5014 91.7838 24.3442C91.9185 24.2095 92.1206 24.1196 92.3901 24.0523L93.513 23.8277V24.2095L92.5922 24.3891C92.4126 24.434 92.2554 24.479 92.1655 24.5463C92.0757 24.6137 92.0308 24.7035 92.0308 24.8383C92.0308 24.9506 92.0757 25.0628 92.1655 25.1302C92.2554 25.1976 92.3901 25.2425 92.5698 25.2425C92.682 25.2425 92.7943 25.22 92.8841 25.1976C92.9964 25.1751 93.0863 25.1302 93.1536 25.0628C93.2435 24.9955 93.2884 24.9281 93.3333 24.8383C93.3782 24.7484 93.4007 24.6362 93.4007 24.5239V23.7603ZM96.9264 22.7498L95.579 26.0959C95.5116 26.2755 95.4218 26.4327 95.332 26.545C95.2421 26.6573 95.1523 26.7246 95.04 26.7696C94.9277 26.8145 94.8154 26.8369 94.6807 26.8369C94.546 26.8369 94.4337 26.8145 94.3214 26.792C94.2091 26.7471 94.1193 26.7022 94.0295 26.6573L94.1642 26.2531C94.2316 26.3204 94.3214 26.3653 94.4112 26.4102C94.5011 26.4327 94.5909 26.4552 94.6582 26.4552C94.7481 26.4552 94.8604 26.4327 94.9277 26.3653C95.0176 26.298 95.0849 26.1857 95.1748 25.9836L95.332 25.6018L95.04 24.9281L94.1417 22.7498H94.6582L95.3769 24.6137L95.5565 25.1302L95.7586 24.5688L96.4323 22.7722H96.9264V22.7498Z" fill="#15158C"/>
<path d="M20.6393 26.0275H5.77286C2.22467 26.0275 -0.470149 23.1306 0.0688158 19.9192L2.69627 4.46892C3.14541 1.88638 5.54829 0 8.40031 0H17.9894C20.819 0 23.2443 1.90884 23.6934 4.46892L26.3209 19.9192C26.9048 23.1306 24.1875 26.0275 20.6393 26.0275Z" fill="#15158C"/>
<path d="M20.4381 9.34246C20.4156 9.52211 20.3258 9.67931 20.1686 9.79159C17.9229 11.4759 15.6099 12.3068 13.3417 12.3068C11.0736 12.3068 8.78298 11.4534 6.55975 9.76914C6.26781 9.54457 6.20045 9.11789 6.42501 8.82595C6.64958 8.53401 7.07626 8.46664 7.3682 8.69121C11.3655 11.7004 15.2955 11.7004 19.3602 8.69121C19.6521 8.46664 20.0788 8.53401 20.3034 8.82595C20.4156 9.00561 20.4606 9.18526 20.4381 9.34246Z" fill="#F8991D"/>
</svg>
