<svg width="22" height="22" viewBox="0 0 22 22" fill="none" xmlns="http://www.w3.org/2000/svg">
<path fill-rule="evenodd" clip-rule="evenodd" d="M16.3103 13.3304C17.9562 13.3304 19.2904 14.6647 19.2904 16.3105C19.2904 17.9564 17.9562 19.2906 16.3103 19.2906C14.6645 19.2906 13.3302 17.9564 13.3302 16.3105C13.3302 14.6647 14.6645 13.3304 16.3103 13.3304ZM20.9904 16.3105C20.9904 13.7258 18.8951 11.6304 16.3103 11.6304C13.7256 11.6304 11.6302 13.7258 11.6302 16.3105C11.6302 18.8953 13.7256 20.9906 16.3103 20.9906C17.3227 20.9906 18.26 20.6692 19.0257 20.1228C19.0671 20.2318 19.1316 20.3339 19.2194 20.4216L20.2831 21.4854C20.6151 21.8174 21.1533 21.8174 21.4852 21.4854C21.8172 21.1535 21.8172 20.6153 21.4852 20.2833L20.4214 19.2196C20.3337 19.1318 20.2316 19.0673 20.1226 19.0259C20.669 18.2602 20.9904 17.3229 20.9904 16.3105Z" fill="#A9A9A9"/>
<rect x="1.7" y="1.7001" width="8.40972" height="8.40972" rx="1.45556" stroke="#A9A9A9" stroke-width="1.2"/>
<rect x="1.7" y="12.4403" width="8.40972" height="7.84444" rx="1.45556" stroke="#A9A9A9" stroke-width="1.2"/>
<rect x="12.4403" y="1.7001" width="7.84444" height="8.40972" rx="1.45556" stroke="#A9A9A9" stroke-width="1.2"/>
</svg>
