<svg width="170" height="180" viewBox="0 0 170 180" fill="none" xmlns="http://www.w3.org/2000/svg">
<ellipse cx="90.0157" cy="99.9806" rx="79.6133" ry="80.0194" fill="#F1F1F1"/>
<path d="M160.093 67.74C156.967 79.0998 146.721 104.416 128.295 109.122C109.869 113.829 101.118 108.852 99.3514 106.485" stroke="#CCCCCC" stroke-width="2.73483"/>
<mask id="path-3-inside-1_18566_37598" fill="white">
<path fill-rule="evenodd" clip-rule="evenodd" d="M69.4569 43.0376L51.9487 61.9509V156.924H128.083V61.9509L111.05 43.0376H69.4569ZM84.7413 74.8202C89.1396 74.8202 92.7052 71.2365 92.7052 66.8157C92.7052 62.3949 89.1396 58.8112 84.7413 58.8112C80.343 58.8112 76.7774 62.3949 76.7774 66.8157C76.7774 71.2365 80.343 74.8202 84.7413 74.8202Z"/>
</mask>
<path fill-rule="evenodd" clip-rule="evenodd" d="M69.4569 43.0376L51.9487 61.9509V156.924H128.083V61.9509L111.05 43.0376H69.4569ZM84.7413 74.8202C89.1396 74.8202 92.7052 71.2365 92.7052 66.8157C92.7052 62.3949 89.1396 58.8112 84.7413 58.8112C80.343 58.8112 76.7774 62.3949 76.7774 66.8157C76.7774 71.2365 80.343 74.8202 84.7413 74.8202Z" fill="white"/>
<path d="M51.9487 61.9509L50.4076 60.5243L49.8486 61.1281V61.9509H51.9487ZM69.4569 43.0376V40.9375H68.5392L67.9157 41.611L69.4569 43.0376ZM51.9487 156.924H49.8486V159.025H51.9487V156.924ZM128.083 156.924V159.025H130.183V156.924H128.083ZM128.083 61.9509H130.183V61.1447L129.644 60.5455L128.083 61.9509ZM111.05 43.0376L112.611 41.6322L111.985 40.9375H111.05V43.0376ZM53.4899 63.3776L70.9981 44.4643L67.9157 41.611L50.4076 60.5243L53.4899 63.3776ZM54.0489 156.924V61.9509H49.8486V156.924H54.0489ZM128.083 154.824H51.9487V159.025H128.083V154.824ZM125.983 61.9509V156.924H130.183V61.9509H125.983ZM109.49 44.443L126.522 63.3563L129.644 60.5455L112.611 41.6322L109.49 44.443ZM69.4569 45.1378H111.05V40.9375H69.4569V45.1378ZM90.6051 66.8157C90.6051 70.0867 87.9697 72.7201 84.7413 72.7201V76.9203C90.3096 76.9203 94.8053 72.3862 94.8053 66.8157H90.6051ZM84.7413 60.9113C87.9697 60.9113 90.6051 63.5447 90.6051 66.8157H94.8053C94.8053 61.2451 90.3096 56.7111 84.7413 56.7111V60.9113ZM78.8776 66.8157C78.8776 63.5447 81.5129 60.9113 84.7413 60.9113V56.7111C79.173 56.7111 74.6773 61.2451 74.6773 66.8157H78.8776ZM84.7413 72.7201C81.5129 72.7201 78.8776 70.0867 78.8776 66.8157H74.6773C74.6773 72.3862 79.173 76.9203 84.7413 76.9203V72.7201Z" fill="#CCCCCC" mask="url(#path-3-inside-1_18566_37598)"/>
<path d="M79.4106 99.9808C79.4106 101.014 79.2081 102.037 78.8146 102.992C78.4212 103.947 77.8445 104.814 77.1175 105.545C76.3904 106.276 75.5274 106.855 74.5775 107.251C73.6276 107.646 72.6095 107.85 71.5813 107.85C70.5532 107.85 69.5351 107.646 68.5852 107.251C67.6353 106.855 66.7723 106.276 66.0452 105.545C65.3182 104.814 64.7415 103.947 64.3481 102.992C63.9546 102.037 63.7521 101.014 63.7521 99.9808H65.4781C65.4781 100.786 65.636 101.584 65.9427 102.328C66.2494 103.073 66.699 103.749 67.2657 104.318C67.8325 104.888 68.5053 105.34 69.2458 105.648C69.9862 105.956 70.7799 106.115 71.5813 106.115C72.3828 106.115 73.1765 105.956 73.9169 105.648C74.6574 105.34 75.3302 104.888 75.897 104.318C76.4637 103.749 76.9133 103.073 77.22 102.328C77.5267 101.584 77.6846 100.786 77.6846 99.9808H79.4106Z" fill="#CCCCCC"/>
<path d="M92.5704 120.819C92.5704 119.786 92.3679 118.763 91.9745 117.808C91.581 116.853 91.0043 115.986 90.2773 115.255C89.5503 114.524 88.6872 113.944 87.7373 113.549C86.7874 113.154 85.7693 112.95 84.7412 112.95C83.713 112.95 82.695 113.154 81.7451 113.549C80.7952 113.944 79.9321 114.524 79.2051 115.255C78.4781 115.986 77.9014 116.853 77.5079 117.808C77.1145 118.763 76.912 119.786 76.912 120.819H78.638C78.638 120.014 78.7959 119.216 79.1026 118.472C79.4093 117.727 79.8588 117.051 80.4256 116.482C80.9923 115.912 81.6651 115.46 82.4056 115.152C83.1461 114.844 83.9397 114.685 84.7412 114.685C85.5427 114.685 86.3363 114.844 87.0768 115.152C87.8173 115.46 88.4901 115.912 89.0568 116.482C89.6235 117.051 90.0731 117.727 90.3798 118.472C90.6865 119.216 90.8444 120.014 90.8444 120.819H92.5704Z" fill="#CCCCCC"/>
<path d="M105.731 99.9808C105.731 101.014 105.529 102.037 105.135 102.992C104.742 103.947 104.165 104.814 103.438 105.545C102.711 106.276 101.848 106.855 100.898 107.251C99.9483 107.646 98.9302 107.85 97.902 107.85C96.8739 107.85 95.8558 107.646 94.9059 107.251C93.956 106.855 93.0929 106.276 92.3659 105.545C91.6389 104.814 91.0622 103.947 90.6687 102.992C90.2753 102.037 90.0728 101.014 90.0728 99.9808H91.7988C91.7988 100.786 91.9567 101.584 92.2634 102.328C92.5701 103.073 93.0197 103.749 93.5864 104.318C94.1531 104.888 94.8259 105.34 95.5664 105.648C96.3069 105.956 97.1005 106.115 97.902 106.115C98.7035 106.115 99.4971 105.956 100.238 105.648C100.978 105.34 101.651 104.888 102.218 104.318C102.784 103.749 103.234 103.073 103.541 102.328C103.847 101.584 104.005 100.786 104.005 99.9808H105.731Z" fill="#CCCCCC"/>
<rect x="52.6426" y="137.725" width="74.7463" height="19.1994" fill="#FAFAFA" stroke="#CCCCCC" stroke-width="2.09628"/>
<ellipse cx="82.8128" cy="20.713" rx="4.32329" ry="4.34534" fill="#C4C4C4"/>
<ellipse cx="138.075" cy="22.6637" rx="1.941" ry="1.95091" fill="#C4C4C4"/>
<ellipse cx="127.781" cy="53.3584" rx="1.941" ry="1.95091" fill="#C4C4C4"/>
<ellipse cx="155.95" cy="74.1524" rx="2.52331" ry="2.53618" fill="#C4C4C4"/>
<ellipse cx="37.7803" cy="13.831" rx="2.52331" ry="2.53618" fill="#C4C4C4"/>
<path d="M114.556 2.52838L116.879 0.194013L118.558 1.88174L116.235 4.21611L118.86 6.8544L117.091 8.63266L114.466 5.99437L112.137 8.33521L110.458 6.64748L112.787 4.30664L110.271 1.77828L112.041 2.15128e-05L114.556 2.52838Z" fill="#E6E6E6"/>
<path d="M53.7407 25.8857L55.6104 24.0064L56.9621 25.3651L55.0924 27.2444L57.2056 29.3683L55.7813 30.7998L53.6681 28.6759L51.7933 30.5604L50.4415 29.2017L52.3164 27.3172L50.2913 25.2818L51.7156 23.8503L53.7407 25.8857Z" fill="#E6E6E6"/>
<path d="M28.7227 57.8039L29.9142 56.6063L30.7757 57.4721L29.5841 58.6697L30.9308 60.0232L30.0231 60.9355L28.6765 59.582L27.4817 60.7829L26.6202 59.9171L27.815 58.7162L26.5245 57.419L27.4322 56.5067L28.7227 57.8039Z" fill="#E6E6E6"/>
<path d="M156.049 46.0221L157.24 44.8246L158.102 45.6904L156.91 46.888L158.257 48.2415L157.349 49.1538L156.002 47.8003L154.808 49.0012L153.946 48.1354L155.141 46.9344L153.85 45.6373L154.758 44.725L156.049 46.0221Z" fill="#E6E6E6"/>
<path d="M1.32086 131.059C5.88749 114.461 20.8581 77.4702 47.7814 70.5937C74.7046 63.7173 87.4912 70.9889 90.0724 74.4469" stroke="#CCCCCC" stroke-width="2.73483"/>
</svg>
