<svg width="24" height="24" viewBox="0 0 24 24" fill="none" xmlns="http://www.w3.org/2000/svg">
<path fill-rule="evenodd" clip-rule="evenodd" d="M3.25011 10.0298C3.25011 7.32928 5.61924 5.24998 8.40009 5.24998C9.83356 5.24998 11.0949 5.92212 12.0001 6.79181C12.9052 5.92212 14.1666 5.24998 15.6001 5.24998C18.3809 5.24998 20.7501 7.32928 20.7501 10.0298C20.7501 11.8796 19.9612 13.5064 18.8682 14.8815C17.7772 16.2542 16.35 17.4192 14.9835 18.3659C14.4616 18.7275 13.9336 19.0611 13.4503 19.3072C12.9966 19.5383 12.4748 19.7499 12.0001 19.7499C11.5253 19.7499 11.0036 19.5383 10.5498 19.3072C10.0666 19.0611 9.53855 18.7275 9.01662 18.3659C7.65014 17.4192 6.22297 16.2542 5.13192 14.8815C4.03899 13.5064 3.25011 11.8796 3.25011 10.0298ZM8.40009 6.74998C6.32085 6.74998 4.7501 8.27908 4.7501 10.0298C4.7501 11.4333 5.34589 12.74 6.30619 13.9482C7.26838 15.1588 8.56302 16.2269 9.87083 17.1329C10.3657 17.4758 10.8318 17.7675 11.2305 17.9705C11.6587 18.1886 11.9067 18.2499 12.0001 18.2499C12.0934 18.2499 12.3414 18.1886 12.7696 17.9705C13.1683 17.7675 13.6345 17.4757 14.1293 17.1329C15.4371 16.2269 16.7318 15.1588 17.694 13.9482C18.6543 12.74 19.2501 11.4333 19.2501 10.0298C19.2501 8.27908 17.6793 6.74998 15.6001 6.74998C14.4059 6.74998 13.2909 7.4634 12.5946 8.3689C12.4527 8.55354 12.233 8.66174 12.0001 8.66174C11.7672 8.66174 11.5475 8.55354 11.4055 8.3689C10.7093 7.4634 9.59424 6.74998 8.40009 6.74998Z" fill="#151515"/>
</svg>
