<svg width="16" height="16" viewBox="0 0 16 16" fill="none" xmlns="http://www.w3.org/2000/svg">
<g clip-path="url(#clip0_18808_42593)">
<path d="M12.5266 2.98022C12.0794 3.00578 11.6307 2.96989 11.1933 2.87355C10.6656 2.69285 10.172 2.42467 9.73327 2.08022C9.35793 1.81415 9.00151 1.52233 8.6666 1.20689C8.52461 1.07426 8.33756 1.00049 8.14326 1.00049C7.94897 1.00049 7.76192 1.07426 7.61993 1.20689C7.29391 1.51236 6.95116 1.79947 6.59327 2.06689C6.1518 2.41587 5.65642 2.69058 5.1266 2.88022C4.62829 2.99281 4.1164 3.03323 3.6066 3.00022C3.18917 2.98293 2.77299 2.94288 2.35993 2.88022C2.259 2.86526 2.15608 2.87077 2.05732 2.89644C1.95856 2.9221 1.86598 2.9674 1.7851 3.02961C1.70422 3.09182 1.6367 3.16969 1.58656 3.25856C1.53642 3.34743 1.50469 3.44549 1.49327 3.54689C1.45993 3.86689 1.37327 4.70022 1.33327 5.62689C1.27721 6.55273 1.33543 7.48195 1.5066 8.39355C1.98929 9.90386 2.87706 11.2528 4.07327 12.2936C5.02405 13.1904 6.05503 13.9982 7.15326 14.7069C7.44759 14.909 7.79624 15.0171 8.15326 15.0171C8.51029 15.0171 8.85894 14.909 9.15326 14.7069C10.1933 13.9797 11.166 13.1609 12.0599 12.2602C13.1861 11.2119 14.0201 9.88851 14.4799 8.42022" stroke="#575757" stroke-width="1.5" stroke-linecap="round" stroke-linejoin="round"/>
<path d="M7.33331 7.33333L9.23998 9.24C9.25185 9.25293 9.26627 9.26326 9.28234 9.27032C9.2984 9.27738 9.31576 9.28103 9.33331 9.28103C9.35086 9.28103 9.36822 9.27738 9.38429 9.27032C9.40036 9.26326 9.41478 9.25293 9.42665 9.24L14.6666 4" stroke="#575757" stroke-width="1.5" stroke-linecap="round" stroke-linejoin="round"/>
</g>
<defs>
<clipPath id="clip0_18808_42593">
<rect width="16" height="16" fill="white"/>
</clipPath>
</defs>
</svg>
