<svg width="24" height="24" viewBox="0 0 24 24" fill="none" xmlns="http://www.w3.org/2000/svg">
<g clip-path="url(#clip0_0_635)">
<path fill-rule="evenodd" clip-rule="evenodd" d="M21.9997 8.44009C21.9997 7.04009 21.8397 5.80009 21.7897 5.33009C21.7713 5.17854 21.7228 5.03218 21.6472 4.89956C21.5716 4.76693 21.4703 4.65068 21.3493 4.5576C21.2283 4.46452 21.09 4.39646 20.9424 4.3574C20.7948 4.31834 20.6409 4.30905 20.4897 4.33009C20.1897 4.33009 19.5397 4.45009 18.8097 4.48009C18.1389 4.51842 17.4659 4.46459 16.8097 4.32009C16.0181 4.04904 15.2778 3.64676 14.6197 3.13009C14.0495 2.72852 13.5082 2.28743 12.9997 1.81009C12.7867 1.61114 12.5062 1.50049 12.2147 1.50049C11.9233 1.50049 11.6427 1.61114 11.4297 1.81009C10.9407 2.26829 10.4266 2.69896 9.88972 3.10009C9.22752 3.62355 8.48445 4.03562 7.68971 4.32009C6.94226 4.48897 6.17441 4.54959 5.40971 4.50009C4.78357 4.47416 4.15931 4.41407 3.53971 4.32009C3.38831 4.29764 3.23394 4.30591 3.0858 4.34441C2.93766 4.38291 2.79879 4.45085 2.67747 4.54417C2.55615 4.63749 2.45487 4.75429 2.37966 4.8876C2.30445 5.0209 2.25686 5.16799 2.23971 5.32009C2.18971 5.80009 2.05971 7.05009 1.99971 8.44009C1.91563 9.82885 2.00295 11.2227 2.25971 12.5901C2.98376 14.8556 4.31541 16.879 6.10971 18.4401C7.5359 19.7853 9.08237 20.9971 10.7297 22.0601C11.1712 22.3632 11.6942 22.5255 12.2297 22.5255C12.7653 22.5255 13.2882 22.3632 13.7297 22.0601C15.2897 20.9694 16.7489 19.7411 18.0897 18.3901C19.779 16.8176 21.03 14.8325 21.7197 12.6301C21.9824 11.2499 22.0765 9.84294 21.9997 8.44009V8.44009Z" stroke="#29298A" stroke-width="2" stroke-linecap="round" stroke-linejoin="round"/>
</g>
<defs>
<clipPath id="clip0_0_635">
<rect width="24" height="24" fill="white"/>
</clipPath>
</defs>
</svg>
