<svg width="331" height="63" viewBox="0 0 331 63" fill="none" xmlns="http://www.w3.org/2000/svg">
<rect x="3" y="3" width="57" height="57" rx="8" fill="#EDEDFF"/>
<path d="M42.375 38.2083V24.7917C42.375 23.7375 41.2875 22.875 39.9583 22.875H23.0417C21.7125 22.875 20.625 23.7375 20.625 24.7917V38.2083C20.625 39.2625 21.7125 40.125 23.0417 40.125H39.9583C41.2875 40.125 42.375 39.2625 42.375 38.2083ZM27.7542 33.3975L30.2917 35.8221L34.0375 31.9983C34.2792 31.7492 34.7625 31.7492 35.0042 32.0079L39.2454 36.4929C39.3127 36.5641 39.3537 36.6488 39.3638 36.7374C39.3739 36.826 39.3526 36.9151 39.3025 36.9947C39.2523 37.0743 39.1752 37.1412 39.0797 37.188C38.9843 37.2348 38.8743 37.2596 38.7621 37.2596H24.2742C23.7667 37.2596 23.4888 36.7996 23.8029 36.4833L26.8117 33.4167C27.0413 33.1675 27.5004 33.1579 27.7542 33.3975Z" fill="#D1D1D1"/>
<rect x="70" y="3" width="57" height="57" rx="8" fill="#FFF9F0"/>
<path d="M109.375 38.2083V24.7917C109.375 23.7375 108.288 22.875 106.958 22.875H90.0417C88.7125 22.875 87.625 23.7375 87.625 24.7917V38.2083C87.625 39.2625 88.7125 40.125 90.0417 40.125H106.958C108.288 40.125 109.375 39.2625 109.375 38.2083ZM94.7542 33.3975L97.2917 35.8221L101.038 31.9983C101.279 31.7492 101.762 31.7492 102.004 32.0079L106.245 36.4929C106.313 36.5641 106.354 36.6488 106.364 36.7374C106.374 36.826 106.353 36.9151 106.302 36.9947C106.252 37.0743 106.175 37.1412 106.08 37.188C105.984 37.2348 105.874 37.2596 105.762 37.2596H91.2742C90.7667 37.2596 90.4888 36.7996 90.8029 36.4833L93.8117 33.4167C94.0413 33.1675 94.5004 33.1579 94.7542 33.3975Z" fill="#D1D1D1"/>
<rect x="137" y="3" width="57" height="57" rx="8" fill="#ECF6F7"/>
<path d="M176.375 38.2083V24.7917C176.375 23.7375 175.288 22.875 173.958 22.875H157.042C155.712 22.875 154.625 23.7375 154.625 24.7917V38.2083C154.625 39.2625 155.712 40.125 157.042 40.125H173.958C175.288 40.125 176.375 39.2625 176.375 38.2083ZM161.754 33.3975L164.292 35.8221L168.038 31.9983C168.279 31.7492 168.762 31.7492 169.004 32.0079L173.245 36.4929C173.313 36.5641 173.354 36.6488 173.364 36.7374C173.374 36.826 173.353 36.9151 173.302 36.9947C173.252 37.0743 173.175 37.1412 173.08 37.188C172.984 37.2348 172.874 37.2596 172.762 37.2596H158.274C157.767 37.2596 157.489 36.7996 157.803 36.4833L160.812 33.4167C161.041 33.1675 161.5 33.1579 161.754 33.3975Z" fill="#D1D1D1"/>
<rect x="204" y="3" width="57" height="57" rx="8" fill="#FFEDED"/>
<path d="M243.375 38.2083V24.7917C243.375 23.7375 242.288 22.875 240.958 22.875H224.042C222.712 22.875 221.625 23.7375 221.625 24.7917V38.2083C221.625 39.2625 222.712 40.125 224.042 40.125H240.958C242.288 40.125 243.375 39.2625 243.375 38.2083ZM228.754 33.3975L231.292 35.8221L235.038 31.9983C235.279 31.7492 235.762 31.7492 236.004 32.0079L240.245 36.4929C240.313 36.5641 240.354 36.6488 240.364 36.7374C240.374 36.826 240.353 36.9151 240.302 36.9947C240.252 37.0743 240.175 37.1412 240.08 37.188C239.984 37.2348 239.874 37.2596 239.762 37.2596H225.274C224.767 37.2596 224.489 36.7996 224.803 36.4833L227.812 33.4167C228.041 33.1675 228.5 33.1579 228.754 33.3975Z" fill="#D1D1D1"/>
<rect x="271" y="3" width="57" height="57" rx="8" fill="#F5F5F5"/>
<path d="M310.375 38.2083V24.7917C310.375 23.7375 309.288 22.875 307.958 22.875H291.042C289.712 22.875 288.625 23.7375 288.625 24.7917V38.2083C288.625 39.2625 289.712 40.125 291.042 40.125H307.958C309.288 40.125 310.375 39.2625 310.375 38.2083ZM295.754 33.3975L298.292 35.8221L302.038 31.9983C302.279 31.7492 302.762 31.7492 303.004 32.0079L307.245 36.4929C307.313 36.5641 307.354 36.6488 307.364 36.7374C307.374 36.826 307.353 36.9151 307.302 36.9947C307.252 37.0743 307.175 37.1412 307.08 37.188C306.984 37.2348 306.874 37.2596 306.762 37.2596H292.274C291.767 37.2596 291.489 36.7996 291.803 36.4833L294.812 33.4167C295.041 33.1675 295.5 33.1579 295.754 33.3975Z" fill="#D1D1D1"/>
</svg>
