<svg width="16" height="16" viewBox="0 0 16 16" fill="none" xmlns="http://www.w3.org/2000/svg">
<path d="M3.11331 11.9998H2.66665C2.31302 11.9998 1.97389 11.8594 1.72384 11.6093C1.47379 11.3593 1.33331 11.0201 1.33331 10.6665V4.3265C1.33331 3.97288 1.47379 3.63374 1.72384 3.38369C1.97389 3.13364 2.31302 2.99316 2.66665 2.99316H9.18665C9.54027 2.99316 9.87941 3.13364 10.1295 3.38369C10.3795 3.63374 10.52 3.97288 10.52 4.3265V8.93316" stroke="#575757" stroke-width="1.5" stroke-linecap="round" stroke-linejoin="round"/>
<path d="M10.7599 5.45996H12.3532C12.4726 5.45967 12.5904 5.48653 12.6978 5.5385C12.8052 5.59048 12.8994 5.66621 12.9732 5.75996L14.4799 7.75996C14.6339 7.96607 14.718 8.21601 14.7199 8.4733V11.8066C14.7199 11.842 14.7058 11.8759 14.6808 11.9009C14.6558 11.9259 14.6219 11.94 14.5866 11.94H12.5532" stroke="#575757" stroke-width="1.5" stroke-linecap="round" stroke-linejoin="round"/>
<path d="M11.0065 13.3734C11.8313 13.3734 12.4999 12.7048 12.4999 11.8801C12.4999 11.0553 11.8313 10.3867 11.0065 10.3867C10.1818 10.3867 9.51318 11.0553 9.51318 11.8801C9.51318 12.7048 10.1818 13.3734 11.0065 13.3734Z" stroke="#575757" stroke-width="1.5" stroke-linecap="round" stroke-linejoin="round"/>
<path d="M4.68004 13.3734C5.50479 13.3734 6.17337 12.7048 6.17337 11.8801C6.17337 11.0553 5.50479 10.3867 4.68004 10.3867C3.85529 10.3867 3.18671 11.0553 3.18671 11.8801C3.18671 12.7048 3.85529 13.3734 4.68004 13.3734Z" stroke="#575757" stroke-width="1.5" stroke-linecap="round" stroke-linejoin="round"/>
<path d="M9.28004 11.9663H6.2467" stroke="#575757" stroke-width="1.5" stroke-linecap="round" stroke-linejoin="round"/>
</svg>
