<svg width="24" height="24" viewBox="0 0 24 24" fill="none" xmlns="http://www.w3.org/2000/svg">
<path d="M3.70996 8.49998C4.50988 6.57916 5.95064 4.99485 7.78708 4.01662C9.62352 3.0384 11.7422 2.72671 13.7825 3.13459C15.8229 3.54246 17.6589 4.6447 18.9781 6.25375C20.2973 7.8628 21.0183 9.87925 21.0183 11.96C21.0183 14.0407 20.2973 16.0571 18.9781 17.6662C17.6589 19.2752 15.8229 20.3775 13.7825 20.7854C11.7422 21.1932 9.62352 20.8815 7.78708 19.9033C5.95064 18.9251 4.50988 17.3408 3.70996 15.42" stroke="#29298A" stroke-width="2" stroke-linecap="round" stroke-linejoin="round"/>
<path d="M3 5V8.8C3 8.85304 3.02107 8.90391 3.05858 8.94142C3.09609 8.97893 3.14696 9 3.2 9H7" stroke="#29298A" stroke-width="2" stroke-linecap="round" stroke-linejoin="round"/>
</svg>
