<svg width="22" height="22" viewBox="0 0 22 22" fill="none" xmlns="http://www.w3.org/2000/svg">
<path d="M1.00822 9.8175L3.66655 2.75H18.2049C18.2421 2.75184 18.2781 2.76395 18.3088 2.78498C18.3395 2.80602 18.3639 2.83516 18.3791 2.86917L20.9916 9.83583C21.002 9.86376 21.0055 9.89381 21.0017 9.92338C20.9979 9.95295 20.9869 9.98114 20.9698 10.0055C20.9526 10.0299 20.9298 10.0497 20.9032 10.0633C20.8767 10.0769 20.8472 10.0837 20.8174 10.0833H16.4999L13.7499 8.25L10.9999 10.0833L8.24989 8.25L5.49989 10.0833H1.18239C1.15021 10.0852 1.11812 10.0785 1.08933 10.0641C1.06055 10.0496 1.0361 10.0277 1.01844 10.0008C1.00077 9.97382 0.990531 9.94269 0.988737 9.91051C0.986944 9.87833 0.993663 9.84625 1.00822 9.8175Z" stroke="#29298A" stroke-width="1.7" stroke-linecap="round" stroke-linejoin="round"/>
<path d="M3.63907 10.0649L3.66657 19.2316" stroke="#29298A" stroke-width="1.7" stroke-linecap="round" stroke-linejoin="round"/>
<path d="M18.3333 10.0649L18.3608 19.2316" stroke="#29298A" stroke-width="1.7" stroke-linecap="round" stroke-linejoin="round"/>
<path d="M20.1667 19.2314L1.83333 19.2681" stroke="#29298A" stroke-width="1.7" stroke-linecap="round" stroke-linejoin="round"/>
<path d="M11 19.2316V12.8149" stroke="#29298A" stroke-width="1.7" stroke-linecap="round" stroke-linejoin="round"/>
<path d="M7.33334 19.2502V13.0168C7.33334 12.9682 7.35265 12.9216 7.38703 12.8872C7.42141 12.8528 7.46805 12.8335 7.51667 12.8335H14.4833C14.532 12.8335 14.5786 12.8528 14.613 12.8872C14.6474 12.9216 14.6667 12.9682 14.6667 13.0168V19.2502" stroke="#29298A" stroke-width="1.7" stroke-linecap="round" stroke-linejoin="round"/>
</svg>
