<svg width="20" height="20" viewBox="0 0 20 20" fill="none" xmlns="http://www.w3.org/2000/svg">
<path d="M13.2836 1.5083H6.72526C5.80479 1.5083 5.05859 2.25449 5.05859 3.17497V16.8166C5.05859 17.7371 5.80479 18.4833 6.72526 18.4833H13.2836C14.2041 18.4833 14.9503 17.7371 14.9503 16.8166V3.17497C14.9503 2.25449 14.2041 1.5083 13.2836 1.5083Z" stroke="#7A7ACC" stroke-width="1.5" stroke-linecap="round" stroke-linejoin="round"/>
<path d="M10.0085 14.4668H10.0001C9.70558 14.4668 9.4668 14.7056 9.4668 15.0001V15.0085C9.4668 15.303 9.70558 15.5418 10.0001 15.5418H10.0085C10.303 15.5418 10.5418 15.303 10.5418 15.0085V15.0001C10.5418 14.7056 10.303 14.4668 10.0085 14.4668Z" stroke="#7A7ACC" stroke-width="1.5" stroke-linecap="round" stroke-linejoin="round"/>
</svg>
