<svg width="43" height="34" viewBox="0 0 43 34" fill="none" xmlns="http://www.w3.org/2000/svg">
<path d="M37.625 26.2288V6.90229C37.625 5.38378 36.0125 4.14136 34.0417 4.14136H8.95833C6.9875 4.14136 5.375 5.38378 5.375 6.90229V26.2288C5.375 27.7473 6.9875 28.9897 8.95833 28.9897H34.0417C36.0125 28.9897 37.625 27.7473 37.625 26.2288ZM15.9458 19.2989L19.7083 22.7914L25.2625 17.2834C25.6208 16.9245 26.3375 16.9245 26.6958 17.2972L32.9846 23.7578C33.0844 23.8603 33.1452 23.9822 33.1601 24.1099C33.1751 24.2376 33.1436 24.3659 33.0692 24.4806C32.9948 24.5952 32.8804 24.6917 32.7389 24.759C32.5974 24.8264 32.4343 24.8621 32.2679 24.8621H10.7858C10.0333 24.8621 9.62125 24.1995 10.0871 23.744L14.5483 19.3265C14.8887 18.9675 15.5696 18.9537 15.9458 19.2989Z" fill="#D1D1D1"/>
</svg>
