<svg width="24" height="24" viewBox="0 0 24 24" fill="none" xmlns="http://www.w3.org/2000/svg">
<path d="M3 16V15C3 12.6131 3.94821 10.3239 5.63604 8.63604C7.32387 6.94821 9.61305 6 12 6V6C14.3869 6 16.6761 6.94821 18.364 8.63604C20.0518 10.3239 21 12.6131 21 15V16" stroke="#F8991D" stroke-width="1.5" stroke-linecap="round" stroke-linejoin="round"/>
<path d="M12 18C13.1046 18 14 17.1046 14 16C14 14.8954 13.1046 14 12 14C10.8954 14 10 14.8954 10 16C10 17.1046 10.8954 18 12 18Z" stroke="#F8991D" stroke-width="1.5" stroke-linecap="round" stroke-linejoin="round"/>
<path d="M14 14L16.5 11.5" stroke="#F8991D" stroke-width="1.5" stroke-linecap="round" stroke-linejoin="round"/>
</svg>
