<svg width="14" height="14" viewBox="0 0 14 14" fill="none" xmlns="http://www.w3.org/2000/svg">
<path d="M7.5044 1.7476C7.27959 1.36018 6.72011 1.36017 6.49531 1.7476L4.91211 4.47603C4.80106 4.66741 4.60911 4.79801 4.39033 4.83106L1.42331 5.27919C0.924978 5.35446 0.750177 5.98365 1.13827 6.30518L3.34857 8.13639C3.55317 8.3059 3.64938 8.57328 3.59968 8.83429L3.0215 11.8706C2.9301 12.3506 3.43397 12.7235 3.86631 12.4959L6.66013 11.0248C6.87277 10.9129 7.12693 10.9129 7.33957 11.0248L10.1334 12.4959C10.5657 12.7235 11.0696 12.3506 10.9782 11.8706L10.4 8.83429C10.3503 8.57328 10.4465 8.3059 10.6511 8.13639L12.8614 6.30518C13.2495 5.98365 13.0747 5.35446 12.5764 5.27919L9.60938 4.83106C9.39059 4.79801 9.19865 4.66741 9.08759 4.47603L7.5044 1.7476Z" fill="#FDBC15"/>
</svg>
