<svg width="20" height="20" viewBox="0 0 20 20" fill="none" xmlns="http://www.w3.org/2000/svg">
<circle cx="10" cy="10" r="10" fill="#EB7070"/>
<path d="M13.1052 6.83522C13.3649 6.57552 13.3649 6.15444 13.1052 5.89473C12.8455 5.63502 12.4244 5.63502 12.1647 5.89473L9.49995 8.55946L6.83523 5.89473C6.57552 5.63502 6.15445 5.63502 5.89474 5.89473C5.63503 6.15444 5.63503 6.57552 5.89474 6.83523L8.55946 9.49995L5.89473 12.1647C5.63502 12.4244 5.63502 12.8455 5.89473 13.1052C6.15444 13.3649 6.57551 13.3649 6.83522 13.1052L9.49995 10.4404L12.1647 13.1052C12.4244 13.3649 12.8455 13.3649 13.1052 13.1052C13.3649 12.8455 13.3649 12.4244 13.1052 12.1647L10.4404 9.49995L13.1052 6.83522Z" fill="#FDFDFD"/>
</svg>
