<svg width="24" height="24" viewBox="0 0 24 24" fill="none" xmlns="http://www.w3.org/2000/svg">
<path d="M12.0001 9.75C10.7575 9.75 9.75012 10.7574 9.75012 12C9.75012 13.2426 10.7575 14.25 12.0001 14.25C13.2428 14.25 14.2501 13.2426 14.2501 12C14.2501 10.7574 13.2428 9.75 12.0001 9.75Z" fill="#70727A"/>
<path fill-rule="evenodd" clip-rule="evenodd" d="M12.0001 5.5C9.38235 5.5 7.02813 6.55139 5.33174 7.85335C4.48244 8.50519 3.78556 9.22913 3.29661 9.93368C2.81698 10.6248 2.50012 11.3515 2.50012 12C2.50012 12.6485 2.81698 13.3752 3.29661 14.0663C3.78556 14.7709 4.48244 15.4948 5.33174 16.1466C7.02813 17.4486 9.38235 18.5 12.0001 18.5C14.6179 18.5 16.9721 17.4486 18.6685 16.1466C19.5178 15.4948 20.2147 14.7709 20.7036 14.0663C21.1833 13.3752 21.5001 12.6485 21.5001 12C21.5001 11.3515 21.1833 10.6248 20.7036 9.93368C20.2147 9.22913 19.5178 8.50519 18.6685 7.85335C16.9721 6.55139 14.6179 5.5 12.0001 5.5ZM8.25012 12C8.25012 9.92893 9.92905 8.25 12.0001 8.25C14.0712 8.25 15.7501 9.92893 15.7501 12C15.7501 14.0711 14.0712 15.75 12.0001 15.75C9.92905 15.75 8.25012 14.0711 8.25012 12Z" fill="#70727A"/>
</svg>
