<svg width="40" height="40" viewBox="0 0 40 40" fill="none" xmlns="http://www.w3.org/2000/svg">
<path fill-rule="evenodd" clip-rule="evenodd" d="M5.41675 16.7163C5.41675 12.2155 9.36532 8.75 14.0001 8.75C16.3892 8.75 18.4915 9.87023 20.0001 11.3197C21.5087 9.87023 23.611 8.75 26.0001 8.75C30.6348 8.75 34.5834 12.2155 34.5834 16.7163C34.5834 19.7994 33.2686 22.5107 31.4471 24.8026C29.6286 27.0904 27.25 29.0322 24.9725 30.61C24.1026 31.2126 23.2226 31.7685 22.4172 32.1787C21.6609 32.5638 20.7913 32.9167 20.0001 32.9167C19.2088 32.9167 18.3392 32.5638 17.583 32.1787C16.7775 31.7685 15.8975 31.2126 15.0276 30.61C12.7502 29.0322 10.3715 27.0904 8.55312 24.8026C6.73155 22.5107 5.41675 19.7994 5.41675 16.7163ZM14.0001 11.25C10.5347 11.25 7.91675 13.7985 7.91675 16.7163C7.91675 19.0555 8.90973 21.2333 10.5102 23.247C12.1139 25.2647 14.2716 27.0449 16.4513 28.5549C17.2761 29.1263 18.053 29.6125 18.7175 29.951C19.4312 30.3144 19.8445 30.4167 20.0001 30.4167C20.1556 30.4167 20.569 30.3144 21.2827 29.9509C21.9472 29.6125 22.7241 29.1263 23.5488 28.5549C25.7285 27.0449 27.8863 25.2647 29.4899 23.247C31.0904 21.2333 32.0834 19.0555 32.0834 16.7163C32.0834 13.7985 29.4655 11.25 26.0001 11.25C24.0098 11.25 22.1514 12.439 20.991 13.9482C20.7544 14.2559 20.3883 14.4363 20.0001 14.4363C19.6119 14.4363 19.2458 14.2559 19.0091 13.9482C17.8488 12.439 15.9903 11.25 14.0001 11.25Z" fill="#F7B7B7"/>
</svg>
