<svg width="18" height="18" viewBox="0 0 18 18" fill="none" xmlns="http://www.w3.org/2000/svg">
<path d="M5.81363 5.81574L5.81362 5.81574L5.81363 5.81574ZM2.02502 7.87395C2.02502 7.87409 2.02502 7.87424 2.02502 7.87438C2.02502 7.87453 2.02502 7.87467 2.02502 7.87482L2.09907 7.87484C2.09907 7.87459 2.09907 7.87433 2.09907 7.87408L2.02502 7.87395ZM7.23108 10.6061C7.20295 10.6342 7.1648 10.65 7.12502 10.65C7.08524 10.65 7.04708 10.6342 7.01895 10.6061L6.59469 11.0303L7.01895 10.6061C6.99082 10.5779 6.97502 10.5398 6.97502 10.5C6.97502 10.4602 6.99082 10.4221 7.01895 10.3939C7.04708 10.3658 7.08524 10.35 7.12502 10.35C7.1648 10.35 7.20295 10.3658 7.23108 10.3939C7.25921 10.4221 7.27502 10.4602 7.27502 10.5C7.27502 10.5398 7.25921 10.5779 7.23108 10.6061L7.65535 11.0303L7.23108 10.6061Z" fill="#15158C" stroke="#15158C" stroke-width="1.2"/>
</svg>
