<svg width="2" height="143" viewBox="0 0 2 143" fill="none" xmlns="http://www.w3.org/2000/svg">
<path d="M0 26.0656V0C0.330524 0.021757 0.663971 0.0328064 1 0.0328064C1.33603 0.0328064 1.66948 0.021757 2 0V26.0656C1.66948 26.0439 1.33603 26.0328 1 26.0328C0.663971 26.0328 0.330524 26.0439 0 26.0656Z" fill="#19B2B8"/>
<path d="M0 84.131V58.0654C0.330524 58.0872 0.663971 58.0982 1 58.0982C1.33603 58.0982 1.66948 58.0872 2 58.0654V84.131C1.66948 84.1093 1.33603 84.0982 1 84.0982C0.663971 84.0982 0.330524 84.1093 0 84.131Z" fill="#19B2B8"/>
<path d="M0 142.197V116.131C0.330524 116.153 0.663971 116.164 1 116.164C1.33603 116.164 1.66948 116.153 2 116.131V142.197C1.66948 142.175 1.33603 142.164 1 142.164C0.663971 142.164 0.330524 142.175 0 142.197Z" fill="#D1D1D1"/>
</svg>
