<svg width="22" height="22" viewBox="0 0 22 22" fill="none" xmlns="http://www.w3.org/2000/svg">
<path d="M16.399 19.1125H5.60068C5.30947 19.1127 5.02658 19.0153 4.79725 18.8359C4.56792 18.6564 4.4054 18.4052 4.33568 18.1225L1.90651 8.39662C1.8828 8.30194 1.88101 8.2031 1.90127 8.10762C1.92153 8.01214 1.9633 7.92254 2.0234 7.84564C2.08351 7.76874 2.16037 7.70656 2.24813 7.66384C2.33589 7.62112 2.43224 7.59899 2.52984 7.59912H19.4698C19.5674 7.59899 19.6638 7.62112 19.7516 7.66384C19.8393 7.70656 19.9162 7.76874 19.9763 7.84564C20.0364 7.92254 20.0782 8.01214 20.0984 8.10762C20.1187 8.2031 20.1169 8.30194 20.0932 8.39662L17.664 18.1225C17.5943 18.4052 17.4318 18.6564 17.2024 18.8359C16.9731 19.0153 16.6902 19.1127 16.399 19.1125V19.1125Z" stroke="#A9A9A9" stroke-width="1.2" stroke-linecap="round" stroke-linejoin="round"/>
<path d="M8.98313 2.8877L6.3248 7.59936" stroke="#A9A9A9" stroke-width="1.2" stroke-linecap="round" stroke-linejoin="round"/>
<path d="M12.7233 2.8877L15.3908 7.59936" stroke="#A9A9A9" stroke-width="1.2" stroke-linecap="round" stroke-linejoin="round"/>
</svg>
