<svg width="11" height="10" viewBox="0 0 11 10" fill="none" xmlns="http://www.w3.org/2000/svg">
<path d="M5.73769 2.91667C5.73769 2.74408 5.58658 2.60416 5.40018 2.60416C5.21378 2.60416 5.06267 2.74408 5.06267 2.91667V4.68755H3.15012C2.96372 4.68755 2.81261 4.82746 2.81261 5.00006C2.81261 5.17265 2.96372 5.31257 3.15012 5.31257H5.06267V7.08345C5.06267 7.25604 5.21378 7.39595 5.40018 7.39595C5.58658 7.39595 5.73769 7.25604 5.73769 7.08345V5.31257H7.65024C7.83664 5.31257 7.98775 5.17265 7.98775 5.00006C7.98775 4.82746 7.83664 4.68755 7.65024 4.68755H5.73769V2.91667Z" fill="#575757"/>
</svg>
