<svg width="19" height="19" viewBox="0 0 19 19" fill="none" xmlns="http://www.w3.org/2000/svg">
<path d="M14.1628 16.5057H4.83708C4.58559 16.5059 4.34128 16.4218 4.14322 16.2668C3.94517 16.1118 3.80481 15.8949 3.7446 15.6507L1.64671 7.25126C1.62623 7.16949 1.62469 7.08412 1.64218 7.00167C1.65968 6.91921 1.69575 6.84183 1.74766 6.77541C1.79957 6.709 1.86595 6.6553 1.94174 6.61841C2.01753 6.58152 2.10074 6.5624 2.18503 6.56252H16.8148C16.8991 6.5624 16.9823 6.58152 17.0581 6.61841C17.1339 6.6553 17.2003 6.709 17.2522 6.77541C17.3041 6.84183 17.3402 6.91921 17.3577 7.00167C17.3752 7.08412 17.3736 7.16949 17.3532 7.25126L15.2553 15.6507C15.1951 15.8949 15.0547 16.1118 14.8566 16.2668C14.6586 16.4218 14.4143 16.5059 14.1628 16.5057V16.5057Z" stroke="#151515" stroke-width="1.58095" stroke-linecap="round" stroke-linejoin="round"/>
<path d="M7.75829 2.49395L5.46249 6.56306" stroke="#151515" stroke-width="1.58095" stroke-linecap="round" stroke-linejoin="round"/>
<path d="M10.9885 2.49395L13.2923 6.56306" stroke="#151515" stroke-width="1.58095" stroke-linecap="round" stroke-linejoin="round"/>
</svg>
