<svg width="16" height="16" viewBox="0 0 16 16" fill="none" xmlns="http://www.w3.org/2000/svg">
<g clip-path="url(#clip0_18808_42619)">
<path d="M4.66665 12.0002C5.40303 12.0002 5.99998 11.4032 5.99998 10.6668C5.99998 9.93045 5.40303 9.3335 4.66665 9.3335C3.93027 9.3335 3.33331 9.93045 3.33331 10.6668C3.33331 11.4032 3.93027 12.0002 4.66665 12.0002Z" stroke="#575757" stroke-width="1.5" stroke-linecap="round" stroke-linejoin="round"/>
<path d="M10.6666 6C11.7712 6 12.6666 5.10457 12.6666 4C12.6666 2.89543 11.7712 2 10.6666 2C9.56206 2 8.66663 2.89543 8.66663 4C8.66663 5.10457 9.56206 6 10.6666 6Z" stroke="#575757" stroke-width="1.5" stroke-linecap="round" stroke-linejoin="round"/>
<path d="M12 14.6668C13.4727 14.6668 14.6666 13.4729 14.6666 12.0002C14.6666 10.5274 13.4727 9.3335 12 9.3335C10.5272 9.3335 9.33331 10.5274 9.33331 12.0002C9.33331 13.4729 10.5272 14.6668 12 14.6668Z" stroke="#575757" stroke-width="1.5" stroke-linecap="round" stroke-linejoin="round"/>
<path d="M2.66665 4.00016C3.40303 4.00016 3.99998 3.40321 3.99998 2.66683C3.99998 1.93045 3.40303 1.3335 2.66665 1.3335C1.93027 1.3335 1.33331 1.93045 1.33331 2.66683C1.33331 3.40321 1.93027 4.00016 2.66665 4.00016Z" stroke="#575757" stroke-width="1.5" stroke-linecap="round" stroke-linejoin="round"/>
<path d="M9.33333 12.0002L6 11.3335" stroke="#575757" stroke-width="1.5" stroke-linecap="round" stroke-linejoin="round"/>
<path d="M11.3333 6L12.1866 9.34667" stroke="#575757" stroke-width="1.5" stroke-linecap="round" stroke-linejoin="round"/>
<path d="M4 2.66699L8.66667 3.33366" stroke="#575757" stroke-width="1.5" stroke-linecap="round" stroke-linejoin="round"/>
<path d="M4.4934 9.33333C4.66674 9.33333 2.90674 4 2.90674 4" stroke="#575757" stroke-width="1.5" stroke-linecap="round" stroke-linejoin="round"/>
</g>
<defs>
<clipPath id="clip0_18808_42619">
<rect width="16" height="16" fill="white"/>
</clipPath>
</defs>
</svg>
