<svg width="14" height="14" viewBox="0 0 14 14" fill="none" xmlns="http://www.w3.org/2000/svg">
<path fill-rule="evenodd" clip-rule="evenodd" d="M6.4166 1.86094C6.45689 1.73316 6.53687 1.62156 6.64492 1.54234C6.75297 1.46312 6.88346 1.42041 7.01743 1.42041C7.15141 1.42041 7.2819 1.46312 7.38995 1.54234C7.498 1.62156 7.57797 1.73316 7.61827 1.86094L8.70327 5.19761H12.2033C12.342 5.19236 12.4787 5.23269 12.5924 5.31243C12.7061 5.39217 12.7905 5.50694 12.8329 5.6392C12.8752 5.77146 12.8731 5.91394 12.8268 6.04487C12.7805 6.1758 12.6926 6.28798 12.5766 6.36427L9.73577 8.42344L10.8208 11.7659C10.8637 11.8933 10.8648 12.031 10.8239 12.1589C10.7829 12.2869 10.7022 12.3985 10.5934 12.4773C10.4846 12.5561 10.3534 12.5981 10.2191 12.5971C10.0847 12.5961 9.95422 12.5522 9.8466 12.4718L6.99993 10.3893L4.1591 12.4543C4.05148 12.5347 3.92096 12.5786 3.78661 12.5796C3.65226 12.5806 3.5211 12.5386 3.4123 12.4598C3.3035 12.381 3.22275 12.2694 3.18185 12.1414C3.14094 12.0135 3.14202 11.8758 3.18493 11.7484L4.26993 8.40594L1.4291 6.34677C1.31307 6.27048 1.2252 6.1583 1.17892 6.02737C1.13264 5.89644 1.1305 5.75396 1.17283 5.6217C1.21515 5.48944 1.29961 5.37467 1.4133 5.29493C1.52699 5.21519 1.66367 5.17486 1.80243 5.18011H5.30243L6.4166 1.86094Z" stroke="#FDBC15" stroke-linecap="round" stroke-linejoin="round"/>
</svg>
