<svg width="20" height="20" viewBox="0 0 20 20" fill="none" xmlns="http://www.w3.org/2000/svg">
<path d="M8.1665 7.5H11.8332C13.5571 7.5 15.2104 8.18482 16.4294 9.40381C17.6484 10.6228 18.3332 12.2761 18.3332 14C18.3332 14.0442 18.3156 14.0866 18.2844 14.1179C18.2531 14.1491 18.2107 14.1667 18.1665 14.1667H1.83317C1.78897 14.1667 1.74658 14.1491 1.71532 14.1179C1.68406 14.0866 1.6665 14.0442 1.6665 14C1.6665 12.2761 2.35132 10.6228 3.57031 9.40381C4.7893 8.18482 6.4426 7.5 8.1665 7.5V7.5Z" stroke="#7A7ACC" stroke-width="1.5" stroke-linecap="round" stroke-linejoin="round"/>
<path d="M10 2.5V7.5" stroke="#7A7ACC" stroke-width="1.5" stroke-linecap="round" stroke-linejoin="round"/>
<path d="M7.5 14.1665V15.1082C7.5022 15.7418 7.75488 16.3489 8.20293 16.7969C8.65098 17.245 9.25803 17.4976 9.89167 17.4998V17.4998C10.526 17.4998 11.1343 17.2479 11.5828 16.7993C12.0314 16.3508 12.2833 15.7425 12.2833 15.1082V14.1665" stroke="#7A7ACC" stroke-width="1.5" stroke-linecap="round" stroke-linejoin="round"/>
</svg>
