<svg width="18" height="18" viewBox="0 0 18 18" fill="none" xmlns="http://www.w3.org/2000/svg">
<path d="M14.3475 16.2525L11.805 14.3025C11.7743 14.2775 11.7359 14.2639 11.6963 14.2639C11.6566 14.2639 11.6182 14.2775 11.5875 14.3025L9.18 16.365C9.1487 16.3919 9.10879 16.4068 9.0675 16.4068C9.02621 16.4068 8.9863 16.3919 8.955 16.365L6.225 14.3025C6.19612 14.2767 6.15874 14.2624 6.12 14.2624C6.08126 14.2624 6.04388 14.2767 6.015 14.3025L3.66 16.2375C3.63388 16.2564 3.60317 16.2679 3.57109 16.2708C3.53901 16.2737 3.50673 16.268 3.47761 16.2542C3.4485 16.2404 3.42362 16.2191 3.40557 16.1924C3.38752 16.1657 3.37696 16.1347 3.375 16.1025V3.08252C3.375 2.68469 3.53304 2.30316 3.81434 2.02186C4.09564 1.74055 4.47718 1.58252 4.875 1.58252H13.125C13.5228 1.58252 13.9044 1.74055 14.1857 2.02186C14.467 2.30316 14.625 2.68469 14.625 3.08252V16.1175C14.6247 16.1496 14.6154 16.1809 14.5983 16.2079C14.5811 16.235 14.5568 16.2568 14.528 16.2708C14.4992 16.2848 14.467 16.2905 14.4351 16.2873C14.4033 16.2841 14.3729 16.272 14.3475 16.2525V16.2525Z" stroke="#15158C" stroke-width="1.2" stroke-linecap="round" stroke-linejoin="round"/>
<path d="M5.31745 4.66504H11.3175" stroke="#15158C" stroke-width="1.2" stroke-linecap="round" stroke-linejoin="round"/>
<path d="M5.31745 7.66504H9.06745" stroke="#15158C" stroke-width="1.2" stroke-linecap="round" stroke-linejoin="round"/>
<path d="M5.31745 10.665H12.0675" stroke="#15158C" stroke-width="1.2" stroke-linecap="round" stroke-linejoin="round"/>
</svg>
