<svg width="24" height="24" viewBox="0 0 24 24" fill="none" xmlns="http://www.w3.org/2000/svg">
<path d="M16.066 8.99469C16.3589 8.70179 16.3589 8.22692 16.066 7.93403C15.7731 7.64113 15.2982 7.64113 15.0053 7.93403L12.0001 10.9392L8.99494 7.93403C8.70205 7.64113 8.22717 7.64113 7.93428 7.93403C7.64139 8.22692 7.64139 8.70179 7.93428 8.99469L10.9395 11.9999L7.93427 15.0051C7.64138 15.298 7.64138 15.7729 7.93427 16.0658C8.22716 16.3586 8.70204 16.3586 8.99493 16.0658L12.0001 13.0605L15.0053 16.0658C15.2982 16.3586 15.7731 16.3586 16.066 16.0658C16.3589 15.7729 16.3589 15.298 16.066 15.0051L13.0608 11.9999L16.066 8.99469Z" fill="#151515"/>
</svg>
