<svg width="17" height="17" viewBox="0 0 17 17" fill="none" xmlns="http://www.w3.org/2000/svg">
<path fill-rule="evenodd" clip-rule="evenodd" d="M5.13564 7.08335C5.13564 5.22515 6.64201 3.71877 8.50022 3.71877C10.3584 3.71877 11.8648 5.22515 11.8648 7.08335C11.8648 8.94156 10.3584 10.4479 8.50022 10.4479C6.64201 10.4479 5.13564 8.94156 5.13564 7.08335ZM8.50022 4.78127C7.22882 4.78127 6.19814 5.81195 6.19814 7.08335C6.19814 8.35476 7.22882 9.38544 8.50022 9.38544C9.77163 9.38544 10.8023 8.35476 10.8023 7.08335C10.8023 5.81195 9.77163 4.78127 8.50022 4.78127Z" fill="#151515"/>
<path fill-rule="evenodd" clip-rule="evenodd" d="M2.49665 6.27362C2.74763 3.22877 5.29207 0.885437 8.34724 0.885437H8.6532C11.7084 0.885437 14.2528 3.22877 14.5038 6.27362C14.6386 7.90927 14.1334 9.5334 13.0945 10.8039L9.69941 14.956C9.07962 15.714 7.92082 15.714 7.30103 14.956L3.90595 10.8039C2.86706 9.5334 2.36182 7.90927 2.49665 6.27362ZM8.34724 1.94794C5.84503 1.94794 3.76111 3.86715 3.55555 6.36091C3.44334 7.72221 3.86384 9.07394 4.72848 10.1314L8.12356 14.2835C8.31824 14.5215 8.68221 14.5215 8.87688 14.2835L12.272 10.1314C13.1366 9.07394 13.5571 7.72221 13.4449 6.36091C13.2393 3.86715 11.1554 1.94794 8.6532 1.94794H8.34724Z" fill="#151515"/>
</svg>
