<svg width="28" height="28" viewBox="0 0 28 28" fill="none" xmlns="http://www.w3.org/2000/svg">
<path d="M13.6523 6.55193C13.6863 5.49676 13.977 3.94237 14.9885 2.92121C15.9274 1.97331 17.0704 1.51133 17.7823 1.30013C18.0572 1.2186 18.3209 1.42585 18.3073 1.71221C18.2596 2.7223 17.994 4.22892 17.3088 5.03605C16.6628 5.79691 15.6236 6.80585 14.1014 6.97561C13.8523 7.0034 13.6443 6.80248 13.6523 6.55193Z" fill="#151515"/>
<path d="M16.2587 25.8648C16.9896 26.1448 17.7287 26.4279 18.3975 26.4279C19.8283 26.4279 23.9946 23.1268 24.1446 19.6982C24.1524 19.5221 24.0472 19.3648 23.8934 19.2787C22.8336 18.6857 21.103 17.2091 21.0428 15.0609C20.9726 12.5574 22.2296 10.5689 23.1809 9.7464C23.395 9.56128 23.4685 9.23487 23.2774 9.02613C22.4118 8.08089 20.6705 6.78069 19.0818 6.81261C17.9259 6.83583 16.8845 7.26639 15.9908 7.63585C15.3052 7.91931 14.7066 8.1668 14.21 8.1668C13.7396 8.1668 13.1749 7.92089 12.5268 7.63866C11.654 7.25858 10.6299 6.81261 9.48116 6.81261C7.35323 6.81261 3.14881 8.57716 3.1488 15.3892C3.1488 19.0003 6.87672 26.5236 10.0225 26.4279C10.7017 26.4279 11.4277 26.1466 12.148 25.8675C12.8574 25.5927 13.5613 25.3199 14.21 25.3199C14.8363 25.3199 15.5436 25.5909 16.2587 25.8648Z" fill="#151515"/>
</svg>
