<svg width="16" height="16" viewBox="0 0 16 16" fill="none" xmlns="http://www.w3.org/2000/svg">
<path d="M2.00037 13.9999L2.52703 12.0799C3.40037 8.92659 5.70037 7.33325 8.00037 7.33325" stroke="#19B2B8" stroke-width="1.1875" stroke-linecap="round" stroke-linejoin="round"/>
<path d="M8.00051 7.31999C9.84146 7.31999 11.3338 5.8276 11.3338 3.98665C11.3338 2.1457 9.84146 0.65332 8.00051 0.65332C6.15956 0.65332 4.66718 2.1457 4.66718 3.98665C4.66718 5.8276 6.15956 7.31999 8.00051 7.31999Z" stroke="#19B2B8" stroke-width="1.1875" stroke-linecap="round" stroke-linejoin="bevel"/>
<path d="M11.3338 15.3334C13.1748 15.3334 14.6672 13.841 14.6672 12.0001C14.6672 10.1591 13.1748 8.66675 11.3338 8.66675C9.49287 8.66675 8.00049 10.1591 8.00049 12.0001C8.00049 13.841 9.49287 15.3334 11.3338 15.3334Z" stroke="#19B2B8" stroke-width="1.1875" stroke-linecap="round" stroke-linejoin="round"/>
<path d="M11.3339 11.5601V13.6734" stroke="#19B2B8" stroke-width="1.1875" stroke-linecap="round" stroke-linejoin="round"/>
<path d="M11.3339 10.4001V10.3401" stroke="#19B2B8" stroke-width="1.1875" stroke-linecap="round" stroke-linejoin="round"/>
</svg>
