<svg width="18" height="18" viewBox="0 0 18 18" fill="none" xmlns="http://www.w3.org/2000/svg">
<path d="M14.0924 3.35256C13.5893 3.38132 13.0846 3.34094 12.5924 3.23256C11.9987 3.02928 11.4435 2.72757 10.9499 2.34006C10.5277 2.04073 10.1267 1.71244 9.74991 1.35756C9.59017 1.20836 9.37974 1.12537 9.16116 1.12537C8.94257 1.12537 8.73214 1.20836 8.57241 1.35756C8.20564 1.70122 7.82004 2.02422 7.41741 2.32506C6.92076 2.71767 6.36346 3.02672 5.76741 3.24006C5.20682 3.36673 4.63093 3.4122 4.05741 3.37506C3.5878 3.35562 3.1196 3.31055 2.65491 3.24006C2.54135 3.22323 2.42557 3.22944 2.31447 3.25831C2.20337 3.28718 2.09922 3.33814 2.00823 3.40813C1.91724 3.47812 1.84127 3.56572 1.78487 3.6657C1.72846 3.76568 1.69276 3.87599 1.67991 3.99006C1.64241 4.35006 1.54491 5.28756 1.49991 6.33006C1.43684 7.37164 1.50234 8.41701 1.69491 9.44256C2.23794 11.1417 3.23668 12.6592 4.58241 13.8301C5.65205 14.839 6.8119 15.7478 8.04741 16.5451C8.37852 16.7724 8.77075 16.8941 9.17241 16.8941C9.57406 16.8941 9.96629 16.7724 10.2974 16.5451C11.4674 15.727 12.5618 14.8058 13.5674 13.7926C14.8344 12.6132 15.7726 11.1244 16.2899 9.47256" stroke="#15158C" stroke-width="1.2" stroke-linecap="round" stroke-linejoin="round"/>
<path d="M8.25 8.25L10.395 10.395C10.4083 10.4095 10.4246 10.4212 10.4427 10.4291C10.4607 10.4371 10.4803 10.4412 10.5 10.4412C10.5197 10.4412 10.5393 10.4371 10.5573 10.4291C10.5754 10.4212 10.5917 10.4095 10.605 10.395L16.5 4.5" stroke="#15158C" stroke-width="1.2" stroke-linecap="round" stroke-linejoin="round"/>
</svg>
