<svg width="16" height="16" viewBox="0 0 16 16" fill="none" xmlns="http://www.w3.org/2000/svg">
<path d="M10.3333 2.47314C11.6139 3.00643 12.6701 3.96693 13.3222 5.19122C13.9744 6.41551 14.1822 7.82795 13.9103 9.18818C13.6384 10.5484 12.9035 11.7724 11.8308 12.6519C10.7581 13.5314 9.41383 14.012 8.02668 14.012C6.63953 14.012 5.29523 13.5314 4.22253 12.6519C3.14983 11.7724 2.41501 10.5484 2.14309 9.18818C1.87117 7.82795 2.07897 6.41551 2.73111 5.19122C3.38326 3.96693 4.43947 3.00643 5.72002 2.47314" stroke="#575757" stroke-width="1.5" stroke-linecap="round" stroke-linejoin="round"/>
<path d="M3.33331 2H5.86665C5.90201 2 5.93592 2.01405 5.96093 2.03905C5.98593 2.06406 5.99998 2.09797 5.99998 2.13333V4.66667" stroke="#575757" stroke-width="1.5" stroke-linecap="round" stroke-linejoin="round"/>
<path d="M12.6667 2H10.1333C10.098 2 10.0641 2.01405 10.0391 2.03905C10.014 2.06406 10 2.09797 10 2.13333V4.66667" stroke="#151515" stroke-width="1.5" stroke-linecap="round" stroke-linejoin="round"/>
</svg>
