<svg width="20" height="20" viewBox="0 0 20 20" fill="none" xmlns="http://www.w3.org/2000/svg">
<circle cx="10" cy="10" r="10" fill="#15158C"/>
<path fill-rule="evenodd" clip-rule="evenodd" d="M15.0315 5.82251C15.1249 5.90693 15.181 6.02501 15.1874 6.15078C15.1939 6.27655 15.1501 6.39972 15.0657 6.49321L8.72159 13.5047L4.88549 9.84291C4.79935 9.75488 4.75078 9.63683 4.75001 9.51367C4.74924 9.39051 4.79634 9.27186 4.88137 9.18277C4.96641 9.09367 5.08272 9.04108 5.20579 9.0361C5.32885 9.03111 5.44903 9.07413 5.54099 9.15606L8.67124 12.1438L14.3613 5.85623C14.4031 5.80996 14.4537 5.77239 14.5101 5.74568C14.5665 5.71896 14.6276 5.70362 14.69 5.70053C14.7523 5.69745 14.8146 5.70667 14.8734 5.72768C14.9322 5.74869 14.9862 5.78108 15.0324 5.82298L15.0315 5.82251Z" fill="#FDFDFD"/>
</svg>
