<svg width="20" height="20" viewBox="0 0 20 20" fill="none" xmlns="http://www.w3.org/2000/svg">
<path d="M18.2583 7.5166H1.9166" stroke="#575757" stroke-width="1.2" stroke-linecap="round" stroke-linejoin="bevel"/>
<path d="M5.04985 3.9918V2.4668" stroke="#575757" stroke-width="1.2" stroke-linecap="round" stroke-linejoin="bevel"/>
<path d="M15.1585 3.9918V2.4668" stroke="#575757" stroke-width="1.2" stroke-linecap="round" stroke-linejoin="bevel"/>
<path d="M16.6667 4.16699H3.33333C2.41286 4.16699 1.66666 4.91318 1.66666 5.83366V15.8337C1.66666 16.7541 2.41286 17.5003 3.33333 17.5003H16.6667C17.5871 17.5003 18.3333 16.7541 18.3333 15.8337V5.83366C18.3333 4.91318 17.5871 4.16699 16.6667 4.16699Z" stroke="#575757" stroke-width="1.2" stroke-linecap="round" stroke-linejoin="bevel"/>
<path d="M6.13345 10.0088H4.46678C4.23666 10.0088 4.05011 10.1953 4.05011 10.4255V12.0921C4.05011 12.3222 4.23666 12.5088 4.46678 12.5088H6.13345C6.36357 12.5088 6.55011 12.3222 6.55011 12.0921V10.4255C6.55011 10.1953 6.36357 10.0088 6.13345 10.0088Z" stroke="#575757" stroke-width="1.2" stroke-linecap="round" stroke-linejoin="bevel"/>
<path d="M10.9251 10.0088H9.25845C9.02833 10.0088 8.84178 10.1953 8.84178 10.4255V12.0921C8.84178 12.3222 9.02833 12.5088 9.25845 12.5088H10.9251C11.1552 12.5088 11.3418 12.3222 11.3418 12.0921V10.4255C11.3418 10.1953 11.1552 10.0088 10.9251 10.0088Z" stroke="#575757" stroke-width="1.2" stroke-linecap="round" stroke-linejoin="round"/>
</svg>
