<svg width="18" height="18" viewBox="0 0 18 18" fill="none" xmlns="http://www.w3.org/2000/svg">
<path d="M15.6 5.27258H2.4C2.31716 5.27258 2.25 5.33974 2.25 5.42258V8.12258C2.25 8.20542 2.31716 8.27258 2.4 8.27258H15.6C15.6828 8.27258 15.75 8.20542 15.75 8.12258V5.42258C15.75 5.33974 15.6828 5.27258 15.6 5.27258Z" stroke="#15158C" stroke-width="1.2" stroke-linecap="round" stroke-linejoin="round"/>
<path d="M14.25 8.25V14.25C14.25 14.6478 14.092 15.0294 13.8107 15.3107C13.5294 15.592 13.1478 15.75 12.75 15.75H5.25C4.85218 15.75 4.47064 15.592 4.18934 15.3107C3.90804 15.0294 3.75 14.6478 3.75 14.25V8.25" stroke="#15158C" stroke-width="1.2" stroke-linecap="round" stroke-linejoin="round"/>
<path d="M3.23241 5.25014V5.04014C3.18843 4.60348 3.27621 4.16366 3.48443 3.77733C3.69265 3.391 4.01178 3.07587 4.4007 2.87253C4.78962 2.6692 5.23052 2.58697 5.66659 2.63645C6.10266 2.68593 6.51393 2.86484 6.84741 3.15014L9.23241 5.25014" stroke="#15158C" stroke-width="1.2" stroke-linecap="round" stroke-linejoin="round"/>
<path d="M14.7676 4.91259V4.70258C14.8218 4.25989 14.7399 3.8112 14.533 3.41612C14.326 3.02105 14.0038 2.69829 13.609 2.49074C13.2143 2.28319 12.7657 2.20066 12.3229 2.25413C11.8802 2.3076 11.4641 2.49453 11.1301 2.79008L8.76762 4.91259" stroke="#15158C" stroke-width="1.2" stroke-linecap="round" stroke-linejoin="round"/>
</svg>
