<svg width="44" height="44" viewBox="0 0 44 44" fill="none" xmlns="http://www.w3.org/2000/svg">
<path d="M37.1615 22.4404H6.8198C4.79476 22.4404 3.15314 24.0821 3.15314 26.1071V36.6671C3.15314 38.6921 4.79476 40.3338 6.8198 40.3338H37.1615C39.1865 40.3338 40.8281 38.6921 40.8281 36.6671V26.1071C40.8281 24.0821 39.1865 22.4404 37.1615 22.4404Z" stroke="#F8BA68" stroke-width="3" stroke-linecap="round" stroke-linejoin="round"/>
<path d="M22 11.0003C24.0251 11.0003 25.6667 9.3587 25.6667 7.33366C25.6667 5.30861 24.0251 3.66699 22 3.66699C19.975 3.66699 18.3333 5.30861 18.3333 7.33366C18.3333 9.3587 19.975 11.0003 22 11.0003Z" stroke="#F8BA68" stroke-width="3" stroke-linecap="round" stroke-linejoin="round"/>
<path d="M24.145 11L32.6883 22.44" stroke="#F8BA68" stroke-width="3" stroke-linecap="round" stroke-linejoin="round"/>
<path d="M19.8549 11L11.3116 22.44" stroke="#F8BA68" stroke-width="3" stroke-linecap="round" stroke-linejoin="round"/>
</svg>
