<svg width="22" height="22" viewBox="0 0 22 22" fill="none" xmlns="http://www.w3.org/2000/svg">
<path fill-rule="evenodd" clip-rule="evenodd" d="M16.31 13.3304C17.9559 13.3304 19.2901 14.6647 19.2901 16.3105C19.2901 17.9564 17.9559 19.2906 16.31 19.2906C14.6641 19.2906 13.3299 17.9564 13.3299 16.3105C13.3299 14.6647 14.6641 13.3304 16.31 13.3304ZM20.9901 16.3105C20.9901 13.7258 18.8947 11.6304 16.31 11.6304C13.7252 11.6304 11.6299 13.7258 11.6299 16.3105C11.6299 18.8953 13.7252 20.9906 16.31 20.9906C17.3224 20.9906 18.2597 20.6692 19.0254 20.1228C19.0667 20.2318 19.1313 20.3339 19.219 20.4216L20.2828 21.4854C20.6147 21.8174 21.1529 21.8174 21.4849 21.4854C21.8168 21.1535 21.8168 20.6153 21.4849 20.2833L20.4211 19.2196C20.3334 19.1318 20.2312 19.0673 20.1223 19.0259C20.6687 18.2602 20.9901 17.3229 20.9901 16.3105Z" fill="#29298A"/>
<rect x="1.94961" y="1.9501" width="7.90972" height="7.90972" rx="1.20556" stroke="#29298A" stroke-width="1.7"/>
<rect x="1.94961" y="12.6903" width="7.90972" height="7.34444" rx="1.20556" stroke="#29298A" stroke-width="1.7"/>
<rect x="12.6898" y="1.9501" width="7.34444" height="7.90972" rx="1.20556" stroke="#29298A" stroke-width="1.7"/>
</svg>
