<svg width="512" height="57" viewBox="0 0 512 57" fill="none" xmlns="http://www.w3.org/2000/svg">
<rect width="57" height="57" rx="10" fill="#EBEBEB"/>
<path d="M39.375 35.2083V21.7917C39.375 20.7375 38.2875 19.875 36.9583 19.875H20.0417C18.7125 19.875 17.625 20.7375 17.625 21.7917V35.2083C17.625 36.2625 18.7125 37.125 20.0417 37.125H36.9583C38.2875 37.125 39.375 36.2625 39.375 35.2083ZM24.7542 30.3975L27.2917 32.8221L31.0375 28.9983C31.2792 28.7492 31.7625 28.7492 32.0042 29.0079L36.2454 33.4929C36.3127 33.5641 36.3537 33.6488 36.3638 33.7374C36.3739 33.826 36.3526 33.9151 36.3025 33.9947C36.2523 34.0743 36.1752 34.1412 36.0797 34.188C35.9843 34.2348 35.8743 34.2596 35.7621 34.2596H21.2742C20.7667 34.2596 20.4888 33.7996 20.8029 33.4833L23.8117 30.4167C24.0413 30.1675 24.5004 30.1579 24.7542 30.3975Z" fill="#D1D1D1"/>
<rect x="65" width="57" height="57" rx="10" fill="#EBEBEB"/>
<path d="M104.375 35.2083V21.7917C104.375 20.7375 103.288 19.875 101.958 19.875H85.0417C83.7125 19.875 82.625 20.7375 82.625 21.7917V35.2083C82.625 36.2625 83.7125 37.125 85.0417 37.125H101.958C103.288 37.125 104.375 36.2625 104.375 35.2083ZM89.7542 30.3975L92.2917 32.8221L96.0375 28.9983C96.2792 28.7492 96.7625 28.7492 97.0042 29.0079L101.245 33.4929C101.313 33.5641 101.354 33.6488 101.364 33.7374C101.374 33.826 101.353 33.9151 101.302 33.9947C101.252 34.0743 101.175 34.1412 101.08 34.188C100.984 34.2348 100.874 34.2596 100.762 34.2596H86.2742C85.7667 34.2596 85.4888 33.7996 85.8029 33.4833L88.8117 30.4167C89.0413 30.1675 89.5004 30.1579 89.7542 30.3975Z" fill="#D1D1D1"/>
<rect x="130" width="57" height="57" rx="10" fill="#EBEBEB"/>
<path d="M169.375 35.2083V21.7917C169.375 20.7375 168.288 19.875 166.958 19.875H150.042C148.712 19.875 147.625 20.7375 147.625 21.7917V35.2083C147.625 36.2625 148.712 37.125 150.042 37.125H166.958C168.288 37.125 169.375 36.2625 169.375 35.2083ZM154.754 30.3975L157.292 32.8221L161.038 28.9983C161.279 28.7492 161.762 28.7492 162.004 29.0079L166.245 33.4929C166.313 33.5641 166.354 33.6488 166.364 33.7374C166.374 33.826 166.353 33.9151 166.302 33.9947C166.252 34.0743 166.175 34.1412 166.08 34.188C165.984 34.2348 165.874 34.2596 165.762 34.2596H151.274C150.767 34.2596 150.489 33.7996 150.803 33.4833L153.812 30.4167C154.041 30.1675 154.5 30.1579 154.754 30.3975Z" fill="#D1D1D1"/>
<rect x="195" width="57" height="57" rx="10" fill="#EBEBEB"/>
<path d="M234.375 35.2083V21.7917C234.375 20.7375 233.288 19.875 231.958 19.875H215.042C213.712 19.875 212.625 20.7375 212.625 21.7917V35.2083C212.625 36.2625 213.712 37.125 215.042 37.125H231.958C233.288 37.125 234.375 36.2625 234.375 35.2083ZM219.754 30.3975L222.292 32.8221L226.038 28.9983C226.279 28.7492 226.762 28.7492 227.004 29.0079L231.245 33.4929C231.313 33.5641 231.354 33.6488 231.364 33.7374C231.374 33.826 231.353 33.9151 231.302 33.9947C231.252 34.0743 231.175 34.1412 231.08 34.188C230.984 34.2348 230.874 34.2596 230.762 34.2596H216.274C215.767 34.2596 215.489 33.7996 215.803 33.4833L218.812 30.4167C219.041 30.1675 219.5 30.1579 219.754 30.3975Z" fill="#D1D1D1"/>
<rect x="260" width="57" height="57" rx="10" fill="#EBEBEB"/>
<path d="M299.375 35.2083V21.7917C299.375 20.7375 298.288 19.875 296.958 19.875H280.042C278.712 19.875 277.625 20.7375 277.625 21.7917V35.2083C277.625 36.2625 278.712 37.125 280.042 37.125H296.958C298.288 37.125 299.375 36.2625 299.375 35.2083ZM284.754 30.3975L287.292 32.8221L291.038 28.9983C291.279 28.7492 291.762 28.7492 292.004 29.0079L296.245 33.4929C296.313 33.5641 296.354 33.6488 296.364 33.7374C296.374 33.826 296.353 33.9151 296.302 33.9947C296.252 34.0743 296.175 34.1412 296.08 34.188C295.984 34.2348 295.874 34.2596 295.762 34.2596H281.274C280.767 34.2596 280.489 33.7996 280.803 33.4833L283.812 30.4167C284.041 30.1675 284.5 30.1579 284.754 30.3975Z" fill="#D1D1D1"/>
<rect x="325" width="57" height="57" rx="10" fill="#EBEBEB"/>
<path d="M364.375 35.2083V21.7917C364.375 20.7375 363.288 19.875 361.958 19.875H345.042C343.712 19.875 342.625 20.7375 342.625 21.7917V35.2083C342.625 36.2625 343.712 37.125 345.042 37.125H361.958C363.288 37.125 364.375 36.2625 364.375 35.2083ZM349.754 30.3975L352.292 32.8221L356.038 28.9983C356.279 28.7492 356.762 28.7492 357.004 29.0079L361.245 33.4929C361.313 33.5641 361.354 33.6488 361.364 33.7374C361.374 33.826 361.353 33.9151 361.302 33.9947C361.252 34.0743 361.175 34.1412 361.08 34.188C360.984 34.2348 360.874 34.2596 360.762 34.2596H346.274C345.767 34.2596 345.489 33.7996 345.803 33.4833L348.812 30.4167C349.041 30.1675 349.5 30.1579 349.754 30.3975Z" fill="#D1D1D1"/>
<rect x="390" width="57" height="57" rx="10" fill="#EBEBEB"/>
<path d="M429.375 35.2083V21.7917C429.375 20.7375 428.288 19.875 426.958 19.875H410.042C408.712 19.875 407.625 20.7375 407.625 21.7917V35.2083C407.625 36.2625 408.712 37.125 410.042 37.125H426.958C428.288 37.125 429.375 36.2625 429.375 35.2083ZM414.754 30.3975L417.292 32.8221L421.038 28.9983C421.279 28.7492 421.762 28.7492 422.004 29.0079L426.245 33.4929C426.313 33.5641 426.354 33.6488 426.364 33.7374C426.374 33.826 426.353 33.9151 426.302 33.9947C426.252 34.0743 426.175 34.1412 426.08 34.188C425.984 34.2348 425.874 34.2596 425.762 34.2596H411.274C410.767 34.2596 410.489 33.7996 410.803 33.4833L413.812 30.4167C414.041 30.1675 414.5 30.1579 414.754 30.3975Z" fill="#D1D1D1"/>
<rect x="455" width="57" height="57" rx="10" fill="#EBEBEB"/>
<path d="M494.375 35.2083V21.7917C494.375 20.7375 493.288 19.875 491.958 19.875H475.042C473.712 19.875 472.625 20.7375 472.625 21.7917V35.2083C472.625 36.2625 473.712 37.125 475.042 37.125H491.958C493.288 37.125 494.375 36.2625 494.375 35.2083ZM479.754 30.3975L482.292 32.8221L486.038 28.9983C486.279 28.7492 486.762 28.7492 487.004 29.0079L491.245 33.4929C491.313 33.5641 491.354 33.6488 491.364 33.7374C491.374 33.826 491.353 33.9151 491.302 33.9947C491.252 34.0743 491.175 34.1412 491.08 34.188C490.984 34.2348 490.874 34.2596 490.762 34.2596H476.274C475.767 34.2596 475.489 33.7996 475.803 33.4833L478.812 30.4167C479.041 30.1675 479.5 30.1579 479.754 30.3975Z" fill="#D1D1D1"/>
</svg>
