<svg width="18" height="18" viewBox="0 0 18 18" fill="none" xmlns="http://www.w3.org/2000/svg">
<g clip-path="url(#clip0_18729_34857)">
<path d="M11.2499 12.9L6.74995 8.39995" stroke="#151515" stroke-width="1.5" stroke-linecap="round" stroke-linejoin="bevel"/>
<path d="M11.2499 8.39995L6.74995 12.9" stroke="#151515" stroke-width="1.5" stroke-linecap="round" stroke-linejoin="bevel"/>
<path d="M15 1.35753H3.00002C2.5858 1.35753 2.25002 1.69331 2.25002 2.10753V3.60753C2.25002 4.02174 2.5858 4.35753 3.00002 4.35753H15C15.4142 4.35753 15.75 4.02174 15.75 3.60753V2.10753C15.75 1.69331 15.4142 1.35753 15 1.35753Z" stroke="#151515" stroke-width="1.5" stroke-linecap="round" stroke-linejoin="bevel"/>
<path d="M14.2499 4.64249V15.1425C14.2499 15.5403 14.0919 15.9218 13.8106 16.2031C13.5293 16.4844 13.1478 16.6425 12.7499 16.6425H5.24994C4.85212 16.6425 4.47059 16.4844 4.18928 16.2031C3.90798 15.9218 3.74994 15.5403 3.74994 15.1425V4.64249" stroke="#151515" stroke-width="1.5" stroke-linecap="round" stroke-linejoin="bevel"/>
</g>
<defs>
<clipPath id="clip0_18729_34857">
<rect width="17.39" height="17.39" fill="white" transform="scale(1.03508)"/>
</clipPath>
</defs>
</svg>
