<svg width="22" height="22" viewBox="0 0 22 22" fill="none" xmlns="http://www.w3.org/2000/svg">
<path d="M1.00823 9.8175L3.66656 2.75H18.2049C18.2421 2.75184 18.2781 2.76395 18.3088 2.78498C18.3396 2.80602 18.3639 2.83516 18.3791 2.86917L20.9916 9.83583C21.002 9.86376 21.0055 9.89381 21.0017 9.92338C20.9979 9.95295 20.9869 9.98114 20.9698 10.0055C20.9526 10.0299 20.9298 10.0497 20.9032 10.0633C20.8767 10.0769 20.8472 10.0837 20.8174 10.0833H16.4999L13.7499 8.25L10.9999 10.0833L8.2499 8.25L5.4999 10.0833H1.1824C1.15022 10.0852 1.11813 10.0785 1.08935 10.0641C1.06056 10.0496 1.03611 10.0277 1.01845 10.0008C1.00079 9.97382 0.990542 9.94269 0.988749 9.91051C0.986955 9.87833 0.993675 9.84625 1.00823 9.8175Z" stroke="#A9A9A9" stroke-width="1.2" stroke-linecap="round" stroke-linejoin="round"/>
<path d="M3.63907 10.0649L3.66657 19.2316" stroke="#A9A9A9" stroke-width="1.2" stroke-linecap="round" stroke-linejoin="round"/>
<path d="M18.3333 10.0649L18.3608 19.2316" stroke="#A9A9A9" stroke-width="1.2" stroke-linecap="round" stroke-linejoin="round"/>
<path d="M20.1667 19.2317L1.83334 19.2684" stroke="#A9A9A9" stroke-width="1.2" stroke-linecap="round" stroke-linejoin="round"/>
<path d="M11.0001 19.2316V12.8149" stroke="#A9A9A9" stroke-width="1.2" stroke-linecap="round" stroke-linejoin="round"/>
<path d="M7.33334 19.2499V13.0166C7.33334 12.968 7.35266 12.9213 7.38704 12.8869C7.42142 12.8526 7.46805 12.8333 7.51668 12.8333H14.4833C14.532 12.8333 14.5786 12.8526 14.613 12.8869C14.6474 12.9213 14.6667 12.968 14.6667 13.0166V19.2499" stroke="#A9A9A9" stroke-width="1.2" stroke-linecap="round" stroke-linejoin="round"/>
</svg>
