<svg width="16" height="16" viewBox="0 0 16 16" fill="none" xmlns="http://www.w3.org/2000/svg">
<path d="M13.3333 5.6333H2.66659C1.93021 5.6333 1.33325 6.23025 1.33325 6.96663V12.3C1.33325 13.0363 1.93021 13.6333 2.66659 13.6333H13.3333C14.0696 13.6333 14.6666 13.0363 14.6666 12.3V6.96663C14.6666 6.23025 14.0696 5.6333 13.3333 5.6333Z" stroke="#19B2B8" stroke-width="1.1875" stroke-linecap="round" stroke-linejoin="round"/>
<path d="M4.49316 13.6335V9.10013C4.49316 9.06477 4.50721 9.03085 4.53222 9.00585C4.55722 8.98084 4.59114 8.9668 4.6265 8.9668H11.1998C11.2352 8.9668 11.2691 8.98084 11.2941 9.00585C11.3191 9.03085 11.3332 9.06477 11.3332 9.10013V13.6335" stroke="#19B2B8" stroke-width="1.1875" stroke-linecap="round" stroke-linejoin="round"/>
<path d="M8 8.9668V13.6335" stroke="#19B2B8" stroke-width="1.1875" stroke-linecap="round" stroke-linejoin="round"/>
<path d="M2.79352 5.63333V3.63333C4.4082 2.80764 6.19442 2.37321 8.00795 2.36511C9.82149 2.357 11.6115 2.77545 13.2335 3.58666L13.3335 3.63333V5.63333" stroke="#19B2B8" stroke-width="1.1875" stroke-linecap="round" stroke-linejoin="round"/>
</svg>
