<svg width="18" height="18" viewBox="0 0 18 18" fill="none" xmlns="http://www.w3.org/2000/svg">
<path d="M11.25 12.9L6.74998 8.39997" stroke="#151515" stroke-width="1.44921" stroke-linecap="round" stroke-linejoin="bevel"/>
<path d="M11.25 8.39997L6.74998 12.9" stroke="#151515" stroke-width="1.44921" stroke-linecap="round" stroke-linejoin="bevel"/>
<path d="M14.9999 1.35749H2.99995C2.58574 1.35749 2.24995 1.69328 2.24995 2.10749V3.60749C2.24995 4.0217 2.58574 4.35748 2.99995 4.35748H14.9999C15.4141 4.35748 15.7499 4.0217 15.7499 3.60749V2.10749C15.7499 1.69328 15.4141 1.35749 14.9999 1.35749Z" stroke="#151515" stroke-width="1.44921" stroke-linecap="round" stroke-linejoin="bevel"/>
<path d="M14.25 4.64249V15.1425C14.25 15.5403 14.092 15.9218 13.8107 16.2031C13.5294 16.4844 13.1478 16.6425 12.75 16.6425H5.25002C4.8522 16.6425 4.47067 16.4844 4.18937 16.2031C3.90806 15.9218 3.75003 15.5403 3.75003 15.1425V4.64249" stroke="#151515" stroke-width="1.44921" stroke-linecap="round" stroke-linejoin="bevel"/>
</svg>
