<svg width="16" height="16" viewBox="0 0 16 16" fill="none" xmlns="http://www.w3.org/2000/svg">
<g clip-path="url(#clip0_18808_42606)">
<path d="M14.6666 11.2067V6.71334C14.679 6.68114 14.679 6.64553 14.6666 6.61334L8.13331 1.38667C8.10967 1.36774 8.08027 1.35742 8.04998 1.35742C8.01969 1.35742 7.9903 1.36774 7.96665 1.38667L1.40665 6.61334C1.3925 6.62598 1.38107 6.64136 1.37304 6.65855C1.36502 6.67574 1.36058 6.69438 1.35998 6.71334L1.33331 13.2267C1.33331 13.5803 1.47379 13.9194 1.72384 14.1695C1.97389 14.4195 2.31302 14.56 2.66665 14.56L9.47998 14.6067" stroke="#575757" stroke-width="1.5" stroke-linecap="round" stroke-linejoin="round"/>
<path d="M7.99996 12.0002C9.84091 12.0002 11.3333 10.5078 11.3333 8.66683C11.3333 6.82588 9.84091 5.3335 7.99996 5.3335C6.15901 5.3335 4.66663 6.82588 4.66663 8.66683C4.66663 10.5078 6.15901 12.0002 7.99996 12.0002Z" stroke="#575757" stroke-width="1.5" stroke-linecap="round" stroke-linejoin="bevel"/>
<path d="M10.0399 11.4731L12.6665 13.9998" stroke="#575757" stroke-width="1.5" stroke-linecap="round" stroke-linejoin="bevel"/>
</g>
<defs>
<clipPath id="clip0_18808_42606">
<rect width="16" height="16" fill="white"/>
</clipPath>
</defs>
</svg>
